<svg width="46" height="45" viewBox="0 0 46 45" fill="none" xmlns="http://www.w3.org/2000/svg">
<path d="M39.4297 22.466H31.9297M35.6797 26.1308L35.6797 18.8013" stroke="#FE0000" stroke-width="2" stroke-linecap="round"/>
<path d="M5.67969 35.497C5.67969 31.0753 8.86217 27.309 13.1873 26.6121L13.5768 26.5494C17.0402 25.9914 20.5692 25.9914 24.0325 26.5494L24.4221 26.6121C28.7472 27.309 31.9297 31.0753 31.9297 35.497C31.9297 37.4082 30.395 38.9575 28.5019 38.9575H9.10743C7.21434 38.9575 5.67969 37.4082 5.67969 35.497Z" stroke="#80001D" stroke-width="2"/>
<path d="M26.4609 13.1896C26.4609 17.1744 23.0331 20.4046 18.8047 20.4046C14.5763 20.4046 11.1484 17.1744 11.1484 13.1896C11.1484 9.20488 14.5763 5.97461 18.8047 5.97461C23.0331 5.97461 26.4609 9.20488 26.4609 13.1896Z" stroke="#80001D" stroke-width="2"/>
</svg>
