<svg width="39" height="35" viewBox="0 0 39 35" fill="none" xmlns="http://www.w3.org/2000/svg">
<path fill-rule="evenodd" clip-rule="evenodd" d="M34.0951 4.89352C31.0232 1.82519 26.0416 1.82519 22.9697 4.89352L20.4204 7.43809C20.176 7.6818 19.8445 7.81795 19.5 7.81795C19.1555 7.81795 18.824 7.6818 18.5809 7.43809L16.0303 4.89352C12.9584 1.82519 7.97682 1.82519 4.90492 4.89352C1.83173 7.96056 1.83173 12.9357 4.90492 16.0041C4.91662 16.0157 4.92964 16.0287 4.94134 16.0404L19.5 31.7917L34.0587 16.0404C34.0704 16.0287 34.0834 16.0157 34.0951 16.0041C37.1683 12.9357 37.1683 7.96056 34.0951 4.89352ZM21.1302 3.06056C25.2174 -1.02019 31.8461 -1.02019 35.9346 3.06056C40.0153 7.13482 40.0218 13.7356 35.9541 17.8163L20.4555 34.5826C20.2098 34.8483 19.8627 35 19.5 35C19.1373 35 18.7902 34.8483 18.5445 34.5826L3.04594 17.8163C-1.02176 13.7356 -1.01532 7.13482 3.06538 3.06056C7.15387 -1.02019 13.7826 -1.02019 17.8698 3.06056L19.5 4.68742L21.1302 3.06056Z" fill="#80001D"/>
</svg>
