<svg width="36" height="35" viewBox="0 0 36 35" fill="none" xmlns="http://www.w3.org/2000/svg">
<path fill-rule="evenodd" clip-rule="evenodd" d="M2.28641 0.889196C1.9114 0.327261 1.12374 0.168566 0.561235 0.547262C-0.0137693 0.913742 -0.176307 1.68335 0.211196 2.23307L2.59891 5.73906L6.2113 18.9811C7.13631 22.3894 10.3112 24.7715 13.9238 24.7715H29.999C30.6865 24.7715 31.249 24.2218 31.249 23.5499C31.249 22.878 30.6865 22.3283 29.999 22.3283H13.9238C11.9613 22.3283 10.1865 21.3022 9.21151 19.7141L30.3366 17.613C31.9741 17.4542 33.2989 16.2814 33.6364 14.7178L34.974 8.41429C35.4615 6.14211 33.6741 4.00433 31.2991 4.00433H4.42388L2.28641 0.889196ZM8.34877 17.3442L5.37389 6.44753H31.2991C32.0991 6.44753 32.6866 7.156 32.5241 7.91339L31.1865 14.2169C31.074 14.7422 30.6366 15.1331 30.0866 15.182L8.34877 17.3442Z" fill="#80001D"/>
<path fill-rule="evenodd" clip-rule="evenodd" d="M7.49902 30.8796C7.49902 28.8518 9.17404 27.2148 11.2491 27.2148C13.3241 27.2148 14.9991 28.8518 14.9991 30.8796C14.9991 32.9075 13.3241 34.5444 11.2491 34.5444C9.17404 34.5444 7.49902 32.9075 7.49902 30.8796ZM11.2491 29.658C10.5615 29.658 9.99904 30.2078 9.99904 30.8796C9.99904 31.5515 10.5615 32.1012 11.2491 32.1012C11.9366 32.1012 12.4991 31.5515 12.4991 30.8796C12.4991 30.2078 11.9366 29.658 11.2491 29.658Z" fill="#80001D"/>
<path fill-rule="evenodd" clip-rule="evenodd" d="M23.749 30.8796C23.749 28.8518 25.424 27.2148 27.4991 27.2148C29.5741 27.2148 31.2491 28.8518 31.2491 30.8796C31.2491 32.9075 29.5741 34.5444 27.4991 34.5444C25.424 34.5444 23.749 32.9075 23.749 30.8796ZM27.4991 29.658C26.8115 29.658 26.249 30.2078 26.249 30.8796C26.249 31.5515 26.8115 32.1012 27.4991 32.1012C28.1866 32.1012 28.7491 31.5515 28.7491 30.8796C28.7491 30.2078 28.1866 29.658 27.4991 29.658Z" fill="#80001D"/>
</svg>
