<svg width="183" height="86" viewBox="0 0 183 86" fill="none" xmlns="http://www.w3.org/2000/svg">
<path d="M87.592 38.612C86.992 35.924 86.692 33.296 86.692 30.728C86.692 27.104 87.04 24.488 87.736 22.88C88.432 21.248 88.96 20.096 89.32 19.424C89.68 18.728 90.004 18.212 90.292 17.876C90.148 18.164 89.908 18.896 89.572 20.072C89.26 21.224 89.104 22.64 89.104 24.32C89.104 28.328 90.16 32.444 92.272 36.668L87.592 38.612ZM98.68 25.184L97.564 29.036C95.716 27.596 93.904 26.876 92.128 26.876C90.856 26.876 89.872 27.08 89.176 27.488C88.504 27.896 88.036 28.196 87.772 28.388C87.508 28.556 87.292 28.736 87.124 28.928L87.556 28.064C87.7 27.824 87.856 27.608 88.024 27.416C88.192 27.2 88.432 26.96 88.744 26.696C89.2 26.24 89.968 25.808 91.048 25.4C92.128 24.968 93.4 24.752 94.864 24.752C96.112 24.752 97.384 24.896 98.68 25.184ZM100.156 17.408L99.58 21.584C97.708 20.288 95.584 19.64 93.208 19.64C91.72 19.64 90.64 19.748 89.968 19.964C89.32 20.18 88.804 20.348 88.42 20.468C88.036 20.588 87.652 20.744 87.268 20.936C87.46 20.6 87.82 20.156 88.348 19.604C88.9 19.052 89.86 18.5 91.228 17.948C92.5 17.372 94.228 17.084 96.412 17.084C97.684 17.084 98.932 17.192 100.156 17.408ZM111.632 29.252C110.984 28.052 110.168 27.272 109.184 26.912C108.32 26.528 107.516 26.336 106.772 26.336L109.292 22.7C111.26 23.66 112.664 24.8 113.504 26.12C114.344 27.416 114.764 28.712 114.764 30.008L114.656 31.196C114.392 32.732 113.876 33.992 113.108 34.976C112.364 35.96 111.644 36.68 110.948 37.136C110.252 37.592 109.7 37.904 109.292 38.072C111.26 35.576 112.244 33.416 112.244 31.592C112.244 30.776 112.04 29.996 111.632 29.252ZM106.52 32.42C107.216 33.236 108.032 33.776 108.968 34.04C109.904 34.28 110.636 34.4 111.164 34.4L108.644 38.036C106.676 37.628 105.272 36.728 104.432 35.336C103.592 33.92 103.172 32.396 103.172 30.764L103.28 29.54C103.52 28.052 104.036 26.804 104.828 25.796C105.62 24.788 106.364 24.044 107.06 23.564C107.78 23.084 108.308 22.784 108.644 22.664C106.484 24.944 105.404 27.14 105.404 29.252C105.404 30.524 105.776 31.58 106.52 32.42ZM122.9 23.384L123.476 25.472C123.596 25.88 123.788 26.408 124.052 27.056C124.316 27.68 124.628 28.388 124.988 29.18C125.348 29.972 125.768 30.764 126.248 31.556C126.728 32.348 127.412 33.332 128.3 34.508C129.188 35.684 130.484 36.848 132.188 38C131.804 37.952 131.156 37.808 130.244 37.568C129.284 37.256 128.108 36.68 126.716 35.84C125.348 34.976 123.992 33.692 122.648 31.988C121.304 30.26 120.176 28.004 119.264 25.22L122.9 23.384ZM117.86 35.12C118.052 35.072 118.316 34.988 118.652 34.868C119.012 34.748 119.456 34.58 119.984 34.364C120.536 34.148 121.448 33.572 122.72 32.636C123.992 31.676 125.252 30.296 126.5 28.496C127.748 26.672 128.768 24.452 129.56 21.836V22.592C129.56 23.552 129.536 24.236 129.488 24.644C129.464 25.052 129.392 25.616 129.272 26.336C129.128 27.656 128.756 29.144 128.156 30.8C127.556 32.456 126.608 33.98 125.312 35.372C124.016 36.764 122.384 37.748 120.416 38.324L117.86 35.12ZM140.688 23.816L140.184 26.876C139.968 28.292 139.86 29.732 139.86 31.196C139.86 35.3 140.892 37.352 142.956 37.352C143.22 37.352 143.46 37.328 143.676 37.28C143.916 37.232 144.3 37.1 144.828 36.884C144.612 37.028 144.144 37.256 143.424 37.568C142.728 37.856 142.008 38 141.264 38C140.424 38 139.644 37.748 138.924 37.244C138.204 36.74 137.604 35.804 137.124 34.436C136.668 33.068 136.44 31.244 136.44 28.964C136.44 27.476 136.536 25.868 136.728 24.14L140.688 23.816ZM134.568 41.672L137.448 39.764C137.376 40.052 137.34 40.448 137.34 40.952C137.34 41.96 137.52 42.668 137.88 43.076C138.24 43.484 138.552 43.748 138.816 43.868C137.976 44.324 137.208 44.552 136.512 44.552C135.216 44.552 134.568 43.592 134.568 41.672ZM143.496 24.212L147.528 23.096L147.636 26.048C147.636 29.456 147.18 32.42 146.268 34.94C145.38 37.46 144.348 39.404 143.172 40.772C141.996 42.164 140.976 43.16 140.112 43.76C139.248 44.36 138.564 44.756 138.06 44.948C140.244 43.1 141.744 40.76 142.56 37.928C143.4 35.096 143.82 32.144 143.82 29.072L143.712 25.976L143.496 24.212ZM87.88 53.192L89.86 52.472L91.408 51.896L92.056 51.68L92.488 51.5L92.74 51.392L92.92 51.356L93.316 51.212L93.424 51.14L93.568 51.104L93.712 51.068L93.784 51.032L93.856 50.996L93.964 50.96L94.108 50.924L94.324 50.852L94.432 50.78L94.576 50.744L94.864 50.636L95.872 50.276C96.616 50.684 97.156 51.26 97.492 52.004C97.876 52.7 98.068 53.6 98.068 54.704C98.068 55.808 97.828 56.972 97.348 58.196C96.868 59.42 96.16 60.548 95.224 61.58C94.288 62.588 93.076 63.404 91.588 64.028C90.124 64.652 88.528 64.964 86.8 64.964C88.504 64.556 89.98 63.896 91.228 62.984C92.476 62.048 93.436 61.004 94.108 59.852C94.78 58.676 95.116 57.56 95.116 56.504C95.116 55.76 94.948 55.124 94.612 54.596C94.3 54.044 93.82 53.6 93.172 53.264C92.476 52.952 91.672 52.796 90.76 52.796C89.848 52.796 88.888 52.928 87.88 53.192ZM88.816 64.712C88.336 63.584 88 62.468 87.808 61.364C87.64 60.26 87.496 59.336 87.376 58.592C87.28 57.848 87.232 57.152 87.232 56.504C87.232 56 87.208 55.304 87.16 54.416C87.112 53.528 87.088 52.892 87.088 52.508V52.184L87.124 51.248V50.996V50.708V50.492C87.124 49.412 87.208 48.512 87.376 47.792C87.544 47.072 87.7 46.4 87.844 45.776C87.988 45.152 88.168 44.468 88.384 43.724C89.368 43.988 90.16 44.228 90.76 44.444C91.384 44.636 91.876 44.792 92.236 44.912C91.684 46.616 91.036 49.364 90.292 53.156C89.572 56.924 89.212 60.464 89.212 63.776V64.604C89.044 64.676 88.912 64.712 88.816 64.712ZM107.071 63.596C107.479 63.596 107.983 63.464 108.583 63.2L110.419 62.3L111.427 61.796C111.403 62.18 110.671 62.816 109.231 63.704C107.791 64.568 106.915 65 106.603 65C104.659 64.496 103.267 63.44 102.427 61.832C101.611 60.224 101.203 58.412 101.203 56.396C101.203 55.508 101.239 54.788 101.311 54.236C101.407 53.684 101.467 53.276 101.491 53.012C101.539 52.724 101.635 52.316 101.779 51.788C101.923 51.26 102.043 50.936 102.139 50.816L103.939 51.464C104.539 51.632 104.959 51.776 105.199 51.896C105.463 51.992 105.643 52.064 105.739 52.112C105.427 52.592 105.199 53.216 105.055 53.984C104.935 54.752 104.851 55.388 104.803 55.892C104.755 56.396 104.731 56.984 104.731 57.656C104.731 59.12 104.911 60.416 105.271 61.544C105.655 62.648 106.255 63.332 107.071 63.596ZM109.735 50.852C109.879 50.852 110.467 51.056 111.499 51.464L113.083 52.112C112.099 54.512 111.607 57.164 111.607 60.068C111.607 61.196 111.655 62.06 111.751 62.66L112.039 64.784L112.219 65.648C110.923 64.88 109.987 63.716 109.411 62.156C108.859 60.596 108.583 58.94 108.583 57.188C108.583 55.772 108.715 54.416 108.979 53.12C109.243 51.8 109.495 51.044 109.735 50.852ZM116.173 50.636L119.341 48.656C120.853 50.744 121.609 53.084 121.609 55.676C121.609 57.812 121.249 59.708 120.529 61.364C119.809 63.02 119.185 64.22 118.657 64.964C118.921 63.428 119.053 62.084 119.053 60.932C119.053 58.364 118.681 56.144 117.937 54.272C117.217 52.4 116.629 51.188 116.173 50.636ZM125.209 52.724C124.993 52.484 124.633 52.172 124.129 51.788C123.577 51.428 122.953 51.248 122.257 51.248C121.633 51.248 121.009 51.452 120.385 51.86C120.577 51.308 121.009 50.636 121.681 49.844C122.401 49.052 123.541 48.656 125.101 48.656L126.181 48.728L125.209 52.724ZM129.348 50.636L132.516 48.656C134.028 50.744 134.784 53.084 134.784 55.676C134.784 57.812 134.424 59.708 133.704 61.364C132.984 63.02 132.36 64.22 131.832 64.964C132.096 63.428 132.228 62.084 132.228 60.932C132.228 58.364 131.856 56.144 131.112 54.272C130.392 52.4 129.804 51.188 129.348 50.636ZM138.384 52.724C138.168 52.484 137.808 52.172 137.304 51.788C136.752 51.428 136.128 51.248 135.432 51.248C134.808 51.248 134.184 51.452 133.56 51.86C133.752 51.308 134.184 50.636 134.856 49.844C135.576 49.052 136.716 48.656 138.276 48.656L139.356 48.728L138.384 52.724ZM150.911 56.252C150.263 55.052 149.447 54.272 148.463 53.912C147.599 53.528 146.795 53.336 146.051 53.336L148.571 49.7C150.539 50.66 151.943 51.8 152.783 53.12C153.623 54.416 154.043 55.712 154.043 57.008L153.935 58.196C153.671 59.732 153.155 60.992 152.387 61.976C151.643 62.96 150.923 63.68 150.227 64.136C149.531 64.592 148.979 64.904 148.571 65.072C150.539 62.576 151.523 60.416 151.523 58.592C151.523 57.776 151.319 56.996 150.911 56.252ZM145.799 59.42C146.495 60.236 147.311 60.776 148.247 61.04C149.183 61.28 149.915 61.4 150.443 61.4L147.923 65.036C145.955 64.628 144.551 63.728 143.711 62.336C142.871 60.92 142.451 59.396 142.451 57.764L142.559 56.54C142.799 55.052 143.315 53.804 144.107 52.796C144.899 51.788 145.643 51.044 146.339 50.564C147.059 50.084 147.587 49.784 147.923 49.664C145.763 51.944 144.683 54.14 144.683 56.252C144.683 57.524 145.055 58.58 145.799 59.42ZM163.764 63.668L164.736 63.488L165.636 63.308C165.324 63.668 164.868 64.064 164.268 64.496C163.692 64.904 162.996 65.108 162.18 65.108L161.46 65.036C160.26 64.748 159.216 63.86 158.328 62.372C157.464 60.884 157.032 58.832 157.032 56.216C157.032 54.968 157.152 53.612 157.392 52.148L161.604 51.212L160.884 54.128C160.596 55.616 160.452 56.984 160.452 58.232C160.452 61.616 161.556 63.428 163.764 63.668ZM170.388 64.172C170.532 64.244 170.628 64.316 170.676 64.388C170.724 64.46 170.82 64.496 170.964 64.496L170.388 64.604L169.452 64.676C168.732 64.676 167.964 64.496 167.148 64.136C166.332 63.776 165.66 63.068 165.132 62.012C164.604 60.932 164.34 59.516 164.34 57.764C164.34 56.18 164.592 54.2 165.096 51.824L168.84 51.356C168.792 51.572 168.66 52.136 168.444 53.048C168.252 53.936 168.048 54.86 167.832 55.82C167.64 56.756 167.544 58.004 167.544 59.564C167.544 62.636 168.492 64.172 170.388 64.172ZM171.036 52.292L174.276 50.096C175.5 51.872 176.112 53.684 176.112 55.532C176.112 57.428 175.536 59.192 174.384 60.824C173.232 62.456 172.116 63.704 171.036 64.568C169.956 65.432 169.092 66.056 168.444 66.44C171.156 63.248 172.512 60.164 172.512 57.188C172.512 55.964 172.332 54.92 171.972 54.056C171.612 53.192 171.3 52.604 171.036 52.292Z" fill="#80001D"/>
<path d="M10.6454 0.945969C8.16459 3.79126 7.03049 14.3595 8.44812 21.405C9.29869 25.6052 8.23548 30.7538 6.17992 32.6507C4.90406 33.7346 4.47877 34.683 4.7623 35.9702C5.32935 38.68 8.94429 42.4737 13.268 44.7771L17.1665 46.8772L15.111 48.0966C12.2048 49.858 9.72398 49.1128 6.95961 45.59C4.33701 42.3383 3.55731 42.0673 1.43088 43.7609C-0.482915 45.319 -0.341153 46.0642 2.06881 48.2998L4.05348 50.1289L2.77762 53.9227C1.14735 58.5293 1.07647 61.0359 2.4941 63.5425C3.41555 65.2361 4.62053 65.9813 8.73164 67.2685C9.72398 67.6072 9.86574 67.9459 9.22781 68.9621C8.09371 71.0622 8.37724 75.2624 9.93662 77.6335C11.3542 79.9368 15.111 82.1047 18.9385 82.8499C20.1435 83.1208 22.3408 83.9338 23.8293 84.679C27.5152 86.4403 34.178 86.4403 37.8638 84.679C39.3523 83.9338 41.5496 83.1208 42.7546 82.8499C46.2278 82.1724 50.1972 80.0046 51.473 78.1754C52.4654 76.685 53.1742 76.4818 56.7182 76.4818C66.429 76.4818 70.1148 69.4363 66.7125 57.1744C65.3657 52.229 65.7201 49.1805 67.7757 48.4353C68.3428 48.2321 68.768 47.5546 68.768 47.0127C68.768 46.3352 68.4136 46.132 67.9175 46.403C67.4213 46.7417 67.3504 46.6062 67.6339 46.0642C68.3428 45.0481 66.2872 42.8125 63.452 41.4576C62.3178 40.8479 59.6952 40.3736 57.7106 40.3059H54.0247L55.3715 38.6123C57.2144 36.3767 57.0726 34.0056 54.8044 32.041C52.9615 30.4151 52.8906 30.2119 53.1742 23.7761C53.5995 11.3787 53.3868 6.7043 52.111 3.65577C50.0554 -1.49286 47.0784 -0.950897 40.4156 5.75587L36.588 9.61735L30.3504 9.68509C26.9481 9.75284 24.1129 9.5496 24.1129 9.21088C24.1129 8.53342 19.7182 4.26548 16.4577 1.7589C13.6933 -0.273445 11.9213 -0.544426 10.6454 0.945969ZM17.0247 3.72352C19.7891 6.0946 19.86 6.29783 18.655 7.51724C17.5209 8.73666 17.3792 8.73666 14.8983 5.89136C12.2757 3.04607 12.2757 3.04607 11.4251 4.53646C9.58222 7.85597 9.58222 24.7923 11.496 22.2179C12.1339 21.2695 11.9922 23.3696 10.929 28.2473C9.93662 32.8539 9.58222 30.5506 9.36957 18.8984C9.22781 9.00764 9.36957 6.36558 10.3619 4.06224C11.7795 0.539497 13.268 0.471748 17.0247 3.72352ZM50.9769 3.65577C52.0401 5.68813 52.3236 12.8691 51.7565 23.3019C51.6148 25.8762 51.7565 28.7892 52.0401 29.7377C52.5362 31.228 52.4654 31.2958 51.5439 30.4151C50.1972 29.1279 49.0631 21.8792 50.3389 22.6244C50.9769 23.0309 51.1186 20.9985 50.9769 13.953C50.6224 3.38479 49.9845 1.69116 47.1493 4.80744C46.2278 5.89136 45.1646 7.24626 44.7393 7.85597C44.1014 9.00764 43.9596 9.00764 42.542 7.65273L40.9826 6.23009L44.0305 3.72352C47.6454 0.810478 49.5592 0.810478 50.9769 3.65577ZM23.1205 10.2271L24.3255 13.1401L30.7048 13.0723L37.0133 12.9369L38.36 10.1593C39.0688 8.66891 39.9903 7.38175 40.4156 7.38175C41.5496 7.38175 45.5899 13.1401 46.9366 16.7306C47.5746 18.492 48.1416 21.2018 48.2125 22.8276C48.2125 24.4535 48.5669 26.4181 48.9922 27.1633C49.5592 28.1795 49.5592 28.9925 48.9922 30.2119C48.2834 31.7023 48.3542 31.8378 49.4883 31.4313C51.473 30.8893 52.7489 32.6507 51.7565 34.4798C51.3313 35.225 51.1186 36.1057 51.3313 36.4444C51.9692 37.3929 47.8581 42.2705 45.0937 43.8964C43.747 44.7093 40.9117 45.9965 38.8562 46.6739L35.0995 47.9611L34.6742 46.132C33.7527 42.406 33.8945 42.135 37.2259 41.3221C38.9979 40.9156 40.4156 40.2382 40.4156 39.8994C40.4156 38.8155 37.155 39.0865 36.1627 40.2382C34.9577 41.5931 31.9807 41.5253 31.4136 40.1027C31.1301 39.4252 31.5554 38.5445 32.5477 37.7316C35.1703 35.767 33.9654 34.2088 30.2087 34.6153C27.2316 34.954 27.0899 34.8863 26.6646 32.9894C25.6723 28.2473 20.0018 26.1472 16.0324 29.1279C13.1263 31.2958 13.6224 32.5152 17.2374 32.041C19.7182 31.7023 20.7106 31.9732 22.9079 33.3959C24.3964 34.3443 25.7431 35.1573 25.8849 35.1573C26.0267 35.1573 27.1608 36.038 28.3657 37.0541C31.9098 40.1704 29.0746 43.0157 25.247 40.2382C23.5458 39.0187 21.065 38.8832 21.4194 40.0349C21.632 40.5091 23.1205 41.1866 24.7508 41.5253C26.8772 41.9995 27.5861 42.406 27.3025 43.0834C27.0899 43.6254 26.9481 44.9126 26.9481 45.9965C26.9481 47.8934 26.8772 47.8934 24.3255 47.2159C22.837 46.8094 20.427 45.9287 19.0094 45.2513C15.9615 43.7609 15.3236 43.6254 16.0324 44.7093C16.2451 45.1158 15.4654 44.9126 14.1895 44.3029C12.9845 43.6932 12.1339 43.0157 12.3466 42.7447C12.6301 42.5415 13.1972 42.7447 13.6224 43.1512C14.1186 43.6254 14.7565 43.9641 15.111 43.9641C15.4654 43.9641 14.473 42.6092 12.9136 40.9156C9.86574 37.5961 8.37724 32.7184 10.0784 31.6345C10.5746 31.3635 11.3542 31.228 11.7087 31.3635C12.1339 31.499 12.4883 30.5506 12.5592 29.1279C12.7719 22.8276 13.9769 17.3403 15.7489 13.8175C17.1665 11.1077 20.427 7.38175 21.3485 7.38175C21.632 7.38175 22.4117 8.66891 23.1205 10.2271ZM35.6665 11.2432C35.8792 11.582 33.5401 11.7852 30.4922 11.7852C27.4443 11.7852 25.1052 11.582 25.3179 11.2432C25.4596 10.9722 27.7987 10.769 30.4922 10.769C33.1857 10.769 35.5247 10.9722 35.6665 11.2432ZM9.93662 38.68C10.6454 40.1027 10.9998 41.2543 10.7163 41.2543C9.79486 41.2543 6.74697 37.5283 6.81785 36.5122C6.88873 35.9702 7.03049 34.8863 7.10138 34.1411C7.17226 32.9217 7.31402 32.9894 7.88107 34.4798C8.30636 35.4282 9.22781 37.3251 9.93662 38.68ZM54.2374 33.8024C54.0247 34.1411 54.3792 34.4798 55.0171 34.4798C55.9385 34.4798 56.0803 34.683 55.5133 35.225C55.088 35.6315 54.8753 36.3767 55.0171 36.8509C55.2297 37.3251 53.5995 39.222 51.4021 41.1188C49.2757 43.0157 47.7872 44.7771 48.2125 44.9803C48.5669 45.1835 48.9213 45.1158 48.9213 44.7093C48.9213 44.3706 49.9845 43.4222 51.3313 42.677C54.1665 40.9833 60.0496 40.7801 63.0975 42.2705C66.0746 43.7609 65.7201 44.0996 62.6014 42.8125C58.632 41.2543 52.9615 41.864 50.4807 44.1674C49.3466 45.1835 48.2125 45.7933 47.8581 45.5223C47.5746 45.1835 47.5037 45.5223 47.7163 46.1997C48.0707 47.0127 47.929 47.2836 47.3619 46.9449C46.7949 46.6062 46.724 46.8094 47.0075 47.6224C47.4328 48.5708 47.2201 48.6385 46.086 48.0288C44.2431 47.0804 44.314 46.403 46.2987 45.3868L47.8581 44.6416L46.2278 45.0481C44.8811 45.3868 45.2355 44.8448 47.7163 42.677C49.4883 41.1188 51.5439 38.3413 52.3945 36.5122C53.2451 34.6153 54.0956 33.1249 54.3083 33.1249C54.5209 33.1249 54.45 33.3959 54.2374 33.8024ZM31.768 49.7225C31.8389 46.3352 32.1933 43.2189 32.5477 42.677C32.973 42.135 33.1148 43.5577 32.973 46.403C32.7604 50.1289 32.8313 50.5354 33.2565 48.3676C33.6818 46.2675 33.8236 46.0642 33.9654 47.4869L34.0362 49.2483L37.5803 48.3676C39.6359 47.8256 41.2661 47.7579 41.5496 48.0966C41.7623 48.4353 41.5496 48.7063 41.1244 48.7063C40.6991 48.7063 41.0535 49.6547 41.9041 50.8741C42.8255 52.0258 43.1799 52.8387 42.8255 52.5678C42.4002 52.2968 42.1167 53.042 42.1167 54.4646C42.1876 56.5647 42.4002 56.8357 44.1723 56.8357C45.5899 56.8357 46.2987 57.3099 46.7949 58.5971C47.6454 60.6294 47.6454 60.9682 47.0075 60.7649C46.6531 60.6972 45.7316 60.9682 44.8102 61.4424C42.8255 62.5263 36.3753 63.136 35.8083 62.3231C35.0995 61.1714 36.3044 59.4778 38.7853 58.3261L41.1952 57.1067L38.7144 57.0389C36.6588 56.9712 36.1627 57.2422 36.1627 58.1906C36.1627 59.8842 34.9577 60.5617 34.5324 59.0713C34.3198 58.3939 34.3198 59.0036 34.3906 60.3585C34.5324 62.1876 34.3198 62.7295 33.611 62.4586C33.1148 62.3231 32.5477 60.9004 32.406 59.3423L32.1224 56.497L32.0516 59.681C31.9098 62.2553 31.6972 62.7973 30.8466 62.5263C29.996 62.1876 29.7834 60.9004 29.7834 56.9712C29.7834 50.9419 29.2163 50.6709 29.0037 56.6325C28.9328 58.9358 28.5784 60.6972 28.224 60.494C27.9405 60.2907 27.6569 60.5617 27.6569 61.0359C27.5861 61.6456 27.3025 61.5101 26.6646 60.6972C26.1684 60.0875 25.5305 59.5455 25.3179 59.5455C25.0343 59.5455 25.0343 60.0875 25.3179 60.6972C25.6723 61.8489 25.6723 61.8489 24.7508 60.8327C24.1838 60.223 23.2623 59.5455 22.6952 59.3423C22.1282 59.139 22.6244 58.9358 23.9002 58.9358C25.4596 58.8681 26.0975 58.5971 25.8849 57.9874C25.6723 57.5809 26.0975 54.2614 26.8772 50.7387C27.8696 45.861 28.2949 44.7771 28.5075 46.3352C28.791 47.8934 28.9328 47.6224 29.0746 44.9803C29.2872 41.6608 29.3581 41.7285 29.7834 46.3352L30.2087 51.0774L30.4922 45.6578L30.7757 40.2382L31.201 48.0288L31.6263 55.8195L31.768 49.7225ZM4.54965 44.3706C4.83318 45.0481 4.62053 45.319 4.12436 45.1835C3.06115 44.8448 2.4941 43.2867 3.41555 43.2867C3.76996 43.2867 4.33701 43.7609 4.54965 44.3706ZM45.8734 50.1289C45.519 51.4838 46.3696 51.8903 47.1493 50.7387C47.8581 49.6547 49.6301 51.2806 49.6301 52.9065C49.6301 54.4646 47.8581 55.2098 46.5113 54.1937C45.6608 53.5162 45.5899 53.6517 45.8734 54.8711C46.1569 55.8873 46.086 56.226 45.519 55.8873C45.0228 55.6163 44.6684 54.8711 44.6684 54.2614C44.6684 53.5839 44.1014 52.3645 43.4634 51.4161C42.8255 50.5354 42.2585 48.9773 42.1876 47.9611L42.1167 46.0642L44.1723 47.4869C45.519 48.4353 46.086 49.316 45.8734 50.1289ZM7.59754 48.4353C6.95961 49.045 5.61287 48.0288 6.10904 47.2159C6.39256 46.8094 6.81785 46.8094 7.31402 47.2836C7.73931 47.6901 7.88107 48.1643 7.59754 48.4353ZM24.5382 48.4353C26.2393 48.8418 26.8064 50.8741 25.6723 52.5C25.1052 53.3807 18.9385 54.2614 19.5056 53.4485C19.7182 53.1097 19.5056 52.771 19.0803 52.6355C18.655 52.5 18.9385 51.6193 19.86 50.5354C20.7106 49.5192 21.065 48.7063 20.6397 48.7063C20.2144 48.7063 19.6474 48.6385 19.3638 48.5031C19.0094 48.4353 18.7968 48.8418 18.7968 49.3837C18.7259 50.6709 16.9539 54.1259 16.3159 54.1259C16.0324 54.1259 15.4654 53.313 14.9692 52.2968C14.1186 50.6032 14.2604 50.2644 15.9615 48.8418C17.8753 47.2836 19.4347 47.2159 24.5382 48.4353ZM54.9462 59.4778C55.5133 60.6972 55.9385 62.865 55.9385 64.2199C55.8677 66.6588 55.7968 66.6588 55.3006 63.678C54.8044 60.5617 52.3236 57.8519 50.6224 58.4616C50.1263 58.6648 49.3466 58.2584 48.7795 57.6487C48.2125 57.0389 48.2125 56.768 48.7087 57.0389C49.2048 57.3099 49.8428 56.768 50.4098 55.5486L51.3313 53.5162L52.678 55.3453C53.3868 56.3615 54.3792 58.1906 54.9462 59.4778ZM8.94429 59.2745C9.51134 59.0713 10.4328 58.6648 10.9998 58.4616C11.6378 58.1906 12.2757 58.5293 12.5592 59.2745C12.8428 59.952 12.701 60.5617 12.2048 60.7649C11.7087 60.9004 10.8581 61.9166 10.291 63.0005C9.44046 64.4232 8.66076 64.9651 7.24314 64.9651C3.55731 64.8974 1.64352 62.0521 2.4941 57.7841L2.91938 55.4131L5.47111 57.5132C6.81785 58.6648 8.37724 59.4778 8.94429 59.2745ZM16.5995 59.0036C16.3868 59.3423 16.883 60.3585 17.7336 61.2391C19.3638 62.9328 18.9385 63.7457 16.7412 62.9328C15.678 62.5941 15.6071 62.3231 16.2451 61.9843C16.883 61.5779 16.6703 60.9682 15.2527 59.5455C13.0554 57.3777 13.4807 55.2776 15.678 57.2422C16.3868 57.8519 16.8121 58.6648 16.5995 59.0036ZM56.7182 57.9196C56.7182 58.4616 56.4347 58.7326 56.0094 58.5293C55.655 58.3261 55.3006 57.6487 55.3006 57.1067C55.3006 56.5647 55.655 56.2938 56.0094 56.497C56.4347 56.7002 56.7182 57.3777 56.7182 57.9196ZM66.3581 59.2745C68.768 64.7619 66.5707 72.6881 62.1052 74.7204C60.7585 75.3301 58.2067 75.8044 56.4347 75.8044H53.1742V73.3655C53.1742 71.7396 53.7412 70.2493 54.9462 68.8944C56.1512 67.5394 56.7182 66.0491 56.7182 64.2199C56.7182 62.3908 57.1435 61.1714 58.1359 60.4262C58.9156 59.7488 59.5535 58.7326 59.5535 58.0551C59.5535 56.5647 60.4749 56.497 61.7508 57.9196C62.6014 58.8681 62.7431 58.8681 63.2393 57.5132C63.9481 55.684 65.0822 56.2938 66.3581 59.2745ZM22.4826 60.6972C22.1991 60.9004 22.4117 61.5779 22.9079 62.1198C23.6167 63.0005 21.4903 61.9843 19.2221 60.4262C19.0803 60.2907 19.7891 60.223 20.9232 60.223C22.0573 60.223 22.6952 60.4262 22.4826 60.6972ZM14.8983 63.2715C14.8983 63.8135 14.5439 64.4232 14.1186 64.6942C12.9845 65.3039 11.9922 63.4747 12.9136 62.4586C13.7642 61.4424 14.8983 61.9166 14.8983 63.2715ZM48.0707 62.4586C50.3389 63.8812 48.0707 66.1845 43.6052 66.862C41.8332 67.2007 22.6952 67.2685 18.3006 66.9975C17.5918 66.9297 17.0247 66.591 17.0247 66.1845C17.0247 65.7781 17.6627 65.7103 18.655 65.9813C21.065 66.7943 24.7508 66.6588 25.7431 65.7103C26.3811 65.0329 26.1684 65.0329 24.6799 65.5748C23.4749 65.9813 22.1282 66.0491 21.1359 65.6426C19.2929 64.9651 19.5765 64.9651 27.3025 64.9651C33.611 64.8974 35.0286 65.1006 33.6818 65.8458C32.9021 66.2523 31.8389 66.1845 30.7048 65.7103C29.5707 65.2361 28.5784 65.1684 27.7987 65.5748C26.7355 66.1845 26.7355 66.2523 28.0113 66.2523C28.791 66.32 31.2719 66.3878 33.5401 66.4555C37.0133 66.6588 37.5803 66.4555 37.5803 65.4393C37.5803 64.8296 38.4309 63.8812 39.4232 63.4747C41.0535 62.7295 41.4788 62.7973 42.7546 64.2877C44.1723 65.9813 44.1723 65.9813 43.747 64.4232C43.1799 62.2553 45.6608 61.1037 48.0707 62.4586ZM33.2565 63.2038C35.7374 63.4747 37.4385 64.6264 36.6588 65.3716C36.3753 65.6426 35.7374 65.4393 35.0995 64.9651C33.7527 63.8812 22.6952 63.8135 18.7968 64.8296C15.3945 65.7781 14.8983 65.7781 14.8983 65.1006C14.8983 64.8296 15.4654 64.5587 16.1033 64.4909C21.9156 63.678 24.8926 63.0683 25.3179 62.6618C25.6723 62.3908 27.019 62.3231 28.3657 62.5263C29.7125 62.7295 31.9098 63.0005 33.2565 63.2038ZM18.4424 70.4525C26.6646 72.6203 42.8255 71.9429 48.4251 69.3008C50.3389 68.3524 50.8351 68.6234 49.7719 70.1138C48.9213 71.4687 41.7623 73.0945 35.0995 73.5688C25.3179 74.1785 13.4098 72.0784 11.9213 69.5041C11.2834 68.3524 11.3542 68.2169 12.4883 68.6911C13.268 69.0298 15.8906 69.775 18.4424 70.4525ZM11.3542 71.3332C11.3542 72.1461 12.1339 73.5688 13.1263 74.4495C14.1186 75.3301 14.8983 76.4141 14.8983 76.956C14.8983 78.3787 12.4175 77.9722 10.7872 76.2786C9.29869 74.7882 9.22781 73.9752 9.86574 69.5041C10.0075 68.2846 11.3542 69.9105 11.3542 71.3332ZM52.2527 73.4333C51.8983 76.0076 50.1972 77.769 47.9998 77.8367C46.5113 77.8367 46.5113 77.8367 48.9213 73.9752C51.1186 70.3847 52.6071 70.1138 52.2527 73.4333ZM20.7815 80.3433C22.1282 80.7498 22.4826 82.5789 21.2067 82.5789C20.7106 82.5789 19.1512 82.2401 17.6627 81.7659C15.1818 81.0885 15.0401 80.953 16.1742 80.14C16.8121 79.5981 17.8753 79.3948 18.4424 79.5981C19.0094 79.8691 20.0726 80.2078 20.7815 80.3433ZM43.3217 81.3595C39.4941 81.9692 38.927 81.6982 41.6205 80.411C43.0382 79.6658 43.9596 79.5981 45.0228 80.14C46.2278 80.7498 46.0152 80.8852 43.3217 81.3595Z" fill="black"/>
<path d="M19.0091 10.6335C17.0953 12.8691 15.1815 16.7306 15.8195 17.2725C16.0321 17.4758 17.6624 16.7983 19.5053 15.7821C22.5532 14.0885 22.7658 13.8175 22.4114 11.8529C21.7735 8.73665 20.9229 8.46567 19.0091 10.6335Z" fill="black"/>
<path d="M38.9983 11.1751C38.5022 12.4622 38.2895 13.6816 38.4313 13.7494C38.5022 13.8849 40.1324 14.7656 42.0462 15.7817C44.8106 17.3399 45.3777 17.4754 45.3777 16.5269C45.3777 14.4268 41.7627 8.73623 40.3451 8.73623C40.0616 8.73623 39.4236 9.82016 38.9983 11.1751Z" fill="black"/>
<path d="M25.6016 15.9172C23.546 18.4237 23.7586 20.6593 26.1686 23.0304C29.6418 26.2822 34.6744 25.537 36.5173 21.4045C37.6514 18.8302 36.7299 15.8494 34.4617 14.7655C33.2567 14.0881 33.115 14.1558 33.8947 14.901C34.8161 15.8494 35.0288 18.8302 34.1782 19.9819C33.115 21.54 30.5632 22.353 29.0747 21.6078C27.0192 20.5916 26.0268 17.814 27.0192 16.0527C28.1533 13.9526 27.3027 13.8848 25.6016 15.9172Z" fill="black"/>
<path d="M19.2927 19.0333C17.4498 20.7947 18.3713 23.098 22.1989 26.4853C24.6797 28.6532 25.9556 29.3983 26.0973 28.7886C26.3809 27.5692 24.6088 24.182 23.1203 23.0303C22.4824 22.4883 21.9862 21.2689 21.9862 20.185C21.9862 18.1527 20.7812 17.6107 19.2927 19.0333Z" fill="black"/>
<path d="M39.4232 19.44C39.6359 20.0497 38.8562 21.9466 37.7221 23.6402C35.2412 27.2307 34.3198 29.7373 35.383 29.7373C35.8083 29.7373 36.1627 29.4663 36.1627 29.1276C36.1627 28.7889 37.4386 27.6372 38.9979 26.5533C42.1876 24.3854 43.6052 21.4724 42.4711 19.5078C41.5497 17.8142 38.9979 17.7464 39.4232 19.44Z" fill="black"/>
<path d="M26.7354 27.1632C27.2315 29.9408 28.0821 30.9569 29.1453 29.9408C30.2085 28.9246 29.2871 26.5535 27.6568 25.6728C26.381 24.9954 26.3101 25.1309 26.7354 27.1632Z" fill="black"/>
<path d="M33.469 26.0798C31.697 27.2315 31.3426 30.4155 32.9729 30.4155C33.5399 30.4155 34.0361 29.8058 34.0361 28.9929C34.0361 28.2477 34.3905 27.0283 34.7449 26.2831C35.6664 24.7249 35.5246 24.7249 33.469 26.0798Z" fill="black"/>
<path d="M36.8007 29.6692C35.5957 30.8208 34.7451 32.379 34.7451 33.3951C34.7451 35.563 35.0286 35.563 37.793 33.5984C39.4942 32.5145 40.9827 32.108 43.8179 32.1757C47.9999 32.1757 48.567 31.295 45.6608 29.1272C42.8965 27.0271 39.3524 27.2303 36.8007 29.6692Z" fill="black"/>
<path d="M12.5593 32.9209C11.6378 33.7339 12.0631 36.3759 13.1972 36.7824C15.111 37.5276 18.2297 37.1889 19.0803 36.2404C19.7183 35.4952 19.4347 35.2243 17.5918 34.8855C16.3868 34.6823 14.8275 34.0049 14.1895 33.4629C13.5516 32.9209 12.7719 32.6499 12.5593 32.9209Z" fill="black"/>
<path d="M46.8656 33.3954C46.3695 33.9374 45.0227 34.6148 43.8886 34.8181C42.1875 35.2245 41.904 35.4278 42.6128 36.2407C43.676 37.4601 47.7871 37.4601 48.9212 36.173C49.8427 35.089 49.63 32.9889 48.4959 32.6502C48.0706 32.5147 47.3618 32.8535 46.8656 33.3954Z" fill="black"/>
<path d="M18.159 37.5963C17.3793 38.1382 16.1034 38.5447 15.3946 38.5447C14.2605 38.5447 14.1896 38.7479 14.8985 39.5609C16.8123 41.7965 20.3563 40.3738 19.7184 37.5963C19.5057 36.7156 19.364 36.7156 18.159 37.5963Z" fill="black"/>
<path d="M41.1245 37.731C41.1245 39.4924 42.7548 40.7118 44.7395 40.4408C47.1494 40.1021 47.0785 38.9504 44.5268 37.8665C43.2509 37.3923 41.9751 36.8503 41.6916 36.6471C41.3372 36.5116 41.1245 36.9858 41.1245 37.731Z" fill="black"/>
<path d="M27.8696 51.7545C27.8696 53.5836 28.0114 54.3288 28.1532 53.2449C28.2949 52.2287 28.2949 50.7383 28.1532 49.8577C28.0114 49.0447 27.8696 49.8577 27.8696 51.7545Z" fill="black"/>
<path d="M33.54 54.1255C33.54 55.8191 33.6818 56.4966 33.8236 55.6159C33.9653 54.8029 33.9653 53.448 33.8236 52.5673C33.6818 51.7544 33.54 52.4318 33.54 54.1255Z" fill="black"/>
<path d="M26.9482 57.9197C26.9482 59.2068 27.2318 60.1552 27.5153 59.952C28.0823 59.6133 27.7988 55.4808 27.2318 55.4808C27.09 55.4808 26.9482 56.5647 26.9482 57.9197Z" fill="black"/>
<path d="M12.8294 5.60175C13.2547 6.82116 13.4674 9.05675 13.1839 10.4794C12.8294 12.5795 12.9712 13.0537 13.7509 12.7827C14.318 12.5795 14.6015 11.902 14.3888 11.0891C14.1053 10.2084 14.3888 9.80195 15.1685 9.80195C16.2317 9.80195 16.2317 9.59871 15.3103 7.90508C14.7432 6.88891 13.7509 5.46626 13.1839 4.72106C12.1206 3.4339 12.1206 3.50165 12.8294 5.60175Z" fill="#C11540"/>
<path d="M46.4979 6.88871C45.2221 8.85332 45.0803 9.53078 45.7891 9.66627C46.3562 9.80176 46.7815 10.4792 46.7815 11.2244C46.7815 11.9019 47.1359 12.5116 47.5612 12.5116C48.0573 12.5116 48.1991 13.2568 47.9864 14.2729C47.7738 15.4246 47.9156 15.7633 48.4117 15.2891C48.837 14.8826 48.837 13.6632 48.3408 11.6309C47.7738 9.73401 47.7738 7.90489 48.1991 6.54999C48.9788 3.70469 48.6244 3.84018 46.4979 6.88871Z" fill="#C11540"/>
<path d="M62.6586 47.0611C58.6184 48.6192 57.5552 54.0388 60.7448 56.8841C62.6586 58.5778 62.7295 58.5778 63.2257 57.1551C63.7218 56.0034 64.0054 55.8679 64.8559 56.5454C65.7065 57.2228 65.7774 57.0196 65.1395 55.055C64.3598 52.4129 64.8559 49.4999 66.3444 48.3482C68.6126 46.5869 66.1318 45.7062 62.6586 47.0611Z" fill="#C11540"/>
<path d="M45.9307 54.2425C46.2851 54.92 47.1357 55.5297 47.7736 55.5974C49.333 55.8006 49.1913 55.5297 47.0648 54.1748C45.2928 53.0908 45.2928 53.0908 45.9307 54.2425Z" fill="#C11540"/>
<path d="M8.2217 55.5295C7.8673 56.4102 7.30025 56.6135 5.81174 56.2747L3.89795 55.8683L5.5991 57.2232C7.58377 58.8491 9.07228 58.9845 9.71021 57.4941C9.92285 56.9522 10.5608 56.6135 11.057 56.8167C11.5531 57.0199 12.1911 56.8844 12.4037 56.5457C12.6872 56.1392 12.2619 55.8683 11.5531 55.8683C10.7734 55.8683 9.85197 55.5295 9.42668 55.1231C8.93052 54.6489 8.57611 54.7843 8.2217 55.5295Z" fill="#C11540"/>
<path d="M49.3328 59.1879C49.1202 59.5266 49.4037 60.1363 49.9707 60.6105C50.8213 61.288 51.034 61.288 51.034 60.4073C51.034 59.1201 49.8999 58.3072 49.3328 59.1879Z" fill="#C11540"/>
<path d="M10.6318 76.8018C10.6318 77.6825 14.105 80.2568 15.31 80.2568C17.1529 80.2568 17.0111 78.9019 15.0974 78.2245C14.0341 77.818 12.5456 77.2083 11.9077 76.8696C11.128 76.4631 10.6318 76.4631 10.6318 76.8018Z" fill="#C11540"/>
<path d="M47.5609 77.886C44.2295 79.1731 43.9459 79.4441 45.2218 79.8506C46.0724 80.1216 47.2774 80.0538 47.9862 79.6474C49.1912 79.1054 52.3808 76.1246 51.672 76.2601C51.5302 76.2601 49.6873 77.0053 47.5609 77.886Z" fill="#C11540"/>
<path d="M30.6914 45.3676C30.6914 47.6032 30.8332 48.4162 30.9749 47.1968C31.1167 45.9773 31.1167 44.1482 30.9749 43.1321C30.8332 42.1159 30.6914 43.1321 30.6914 45.3676Z" fill="#ECEC40"/>
<path d="M29.0609 45.3677C28.9192 47.1968 28.7774 49.3647 28.7065 50.1099C28.6357 50.8551 28.3521 52.8874 28.0686 54.6488C27.7851 56.4102 27.7851 58.2393 28.0686 58.7135C28.4939 59.2554 28.8483 58.1038 29.1318 55.5295L29.5571 51.4648L29.628 56.0037C29.7698 59.7297 29.9824 60.6104 30.9038 60.6104C31.8962 60.6104 31.9671 60.0006 31.5418 56.0037C31.2583 53.4971 30.7621 51.3293 30.4077 51.126C30.1242 50.9228 29.6989 48.755 29.5571 46.3839C29.3445 42.0482 29.3445 42.0482 29.0609 45.3677Z" fill="#ECEC40"/>
<path d="M32.3921 42.7933C32.1086 42.9965 31.9668 44.4869 31.9668 45.9773L32.1086 48.7549L32.6047 45.7064C33.1718 42.4546 33.1009 42.0481 32.3921 42.7933Z" fill="#ECEC40"/>
<path d="M27.5726 46.5196C27.3599 48.01 27.5017 48.823 27.8561 48.4842C28.2105 48.1455 28.3523 47.0616 28.2105 45.9777C27.9979 44.1486 27.927 44.2163 27.5726 46.5196Z" fill="#ECEC40"/>
<path d="M32.6762 50.3814C31.9674 50.8556 31.8257 52.0073 32.2509 55.4623C32.818 61.0851 34.023 60.6786 33.7394 54.9881C33.5977 52.6847 33.6686 52.0073 33.8103 53.4977C34.1647 56.343 35.4406 58.5108 35.4406 56.1397C35.4406 53.9041 34.59 49.7717 34.0939 49.7717C33.8812 49.7717 33.2433 50.0427 32.6762 50.3814Z" fill="#ECEC40"/>
<path d="M26.651 51.7355C26.084 52.6162 25.8713 57.0874 26.3675 57.6294C26.5801 57.7649 27.0054 56.5455 27.2889 54.8518C27.7142 51.6678 27.5016 50.3806 26.651 51.7355Z" fill="#ECEC40"/>
<path d="M40.8274 58.7141C41.1818 59.2561 40.9692 59.3238 40.1895 59.0529C39.4807 58.8496 38.9845 58.9174 38.9845 59.3238C38.9845 59.7303 38.701 59.7981 38.2757 59.5948C37.9213 59.3916 37.5669 59.5271 37.5669 59.9336C37.5669 61.0852 39.6224 61.5594 41.5362 60.7465C43.5918 59.7981 43.8044 57.9012 41.7489 57.9012C40.8274 57.9012 40.473 58.1722 40.8274 58.7141Z" fill="#ECEC40"/>
<path d="M24.1701 63.3203C23.603 63.5913 24.0992 63.7945 25.3042 63.7945C26.3674 63.7945 27.9268 63.9978 28.7065 64.2687C29.6988 64.6752 29.8406 64.6075 29.1318 64.1333C28.3521 63.5913 28.3521 63.4558 29.1318 63.1848C29.6988 62.9816 28.99 62.7784 27.5724 62.7784C26.1547 62.7784 24.5954 62.9816 24.1701 63.3203Z" fill="#ECEC40"/>
<path d="M18.7831 63.9301C17.5781 64.4043 17.649 64.5398 19.421 64.9463C20.5551 65.2173 21.6183 65.285 21.8309 65.014C22.0436 64.8108 21.6183 64.6753 20.8386 64.6753C19.7045 64.6753 19.6336 64.5398 20.5551 63.9978C21.8309 63.2526 20.7677 63.1849 18.7831 63.9301Z" fill="#ECEC40"/>
<path d="M32.5345 63.7947C34.2356 63.9979 34.6609 64.2689 34.023 64.6754C33.385 65.0141 33.7395 65.2174 34.9444 65.1496C36.0077 65.0819 36.8582 64.8109 36.8582 64.6077C36.8582 63.8625 34.7318 63.3205 32.3927 63.456L30.1245 63.5237L32.5345 63.7947Z" fill="#ECEC40"/>
<path d="M14.8848 65.4202C14.8848 65.759 15.2392 65.8945 15.5936 65.6912C16.0189 65.4202 16.7986 65.5557 17.3656 66.03C17.9327 66.4364 18.4997 66.5042 18.7124 66.1654C18.925 65.759 18.4288 65.3525 17.5074 65.0815C15.3101 64.5396 14.8848 64.6073 14.8848 65.4202Z" fill="#ECEC40"/>
<path d="M24.808 65.3527C25.3751 65.6915 25.0915 66.0302 23.8157 66.4366C22.398 66.9109 23.3904 67.1141 27.7141 67.1818C30.9038 67.2496 34.0226 67.0464 34.6605 66.7076C35.4402 66.2334 35.0858 66.1657 33.3138 66.4366C31.5417 66.7076 31.1164 66.6399 31.8253 66.1657C32.5341 65.6915 31.8253 65.556 29.3444 65.7592C27.218 65.9624 26.2256 65.8269 26.8636 65.4205C27.5015 65.014 27.218 64.8108 25.8712 64.8108C24.7371 64.8108 24.3118 65.0817 24.808 65.3527Z" fill="#ECEC40"/>
<path d="M9.78161 2.62056C7.9387 6.00781 7.30077 13.663 8.36398 20.0311C9.28544 25.7894 8.43487 30.3283 6.0249 32.4962L4.11111 34.1221L5.52874 37.0351C6.66284 39.6094 11.6245 44.3516 13.0421 44.3516C13.3257 44.3516 14.318 44.8258 15.3103 45.4355L17.0824 46.5872L15.0977 47.8066C12.4042 49.5002 10.136 48.8228 6.73372 45.3C5.17433 43.6741 3.68582 42.3192 3.4023 42.3192C2.48084 42.3192 0 44.6226 0 45.4355C0 45.9097 0.992337 47.0614 2.12644 48.0098C4.04023 49.5679 4.25287 49.9067 3.47318 51.2616C2.69349 52.6165 2.83525 52.6165 4.8908 50.9229C8.43487 48.1453 12.0498 48.6195 14.0345 52.2778C15.3103 54.4456 15.1686 55.5973 13.8218 54.5133C12.9004 53.7681 12.8295 53.8359 13.1839 54.7166C13.4674 55.4618 12.8295 56.207 11.1992 57.2231C9.92337 57.9683 9.21456 58.5781 9.56896 58.5781C9.99425 58.5781 10.7739 58.2393 11.341 57.9006C12.6169 57.1554 16.5153 60.3394 15.8065 61.5588C15.5939 61.9653 15.5939 62.1008 15.9483 61.8298C16.2318 61.5588 17.0115 61.6943 17.6494 62.1008C18.2874 62.575 17.5077 61.6266 15.9483 60.0684C14.3889 58.4426 13.4674 57.0199 13.8218 56.6812C14.2471 56.4102 14.4598 56.3425 14.3889 56.478C14.2471 56.6134 15.3812 57.9683 16.7989 59.4587C19.067 61.8976 19.2088 62.2363 18.1456 62.9815C17.1533 63.6589 17.5785 63.7944 20.3429 63.5234C22.2567 63.3202 24.2414 62.9137 24.8084 62.575C25.5172 62.1685 25.092 62.1008 23.7452 62.3718C22.1149 62.6428 21.2644 62.3718 20.2011 61.2201L18.7835 59.7297L21.5479 60.1362C24.0287 60.5427 24.1705 60.4749 22.9655 59.5942C21.6897 58.7135 21.7605 58.6458 23.887 58.5781C25.8008 58.5781 26.0134 58.3748 25.659 57.0877C25.3755 56.0715 25.1628 55.8682 25.0211 56.5457C24.8793 57.0877 23.4617 57.9683 21.8314 58.4426C19.1379 59.2555 18.8544 59.1878 17.295 57.8329C16.3736 57.0199 15.5939 55.665 15.5939 54.9198C15.5939 54.1069 15.1686 52.6842 14.6015 51.668C13.6092 49.9067 13.6801 49.7712 16.0192 48.4163C17.3659 47.6033 18.4291 46.5872 18.4291 46.2484C18.4291 45.842 18.6418 45.7065 18.8544 45.9097C19.8467 46.7904 19.4923 49.5002 18.2874 51.0583C16.728 53.023 16.728 53.5649 18.1456 54.1069C19.067 54.4456 19.2088 54.2424 18.9253 53.023C18.6418 52.0068 18.9962 50.9906 19.9885 49.9744C20.8391 49.0937 21.1226 48.4163 20.6264 48.4163C20.1303 48.4163 19.9176 48.1453 20.1303 47.8066C20.4138 47.4001 21.5479 47.4678 23.1073 47.8743C26.5096 48.755 27.6437 48.213 27.7146 45.571L27.7854 43.3354L28.3525 45.3677C28.8487 47.2646 28.9195 47.1969 29.0613 44.3516L29.2739 41.303L29.7701 45.029L30.2663 48.755L30.3372 44.4871C30.4789 40.4901 30.5498 40.2869 31.8966 41.0998C33.0307 41.7773 33.2433 42.5225 33.0307 45.7065C32.8889 47.7388 32.8889 48.4163 33.1015 47.1969C33.2433 45.9775 33.6686 45.1645 33.9521 45.3C34.2356 45.5032 34.3774 44.758 34.1647 43.7419C33.8812 41.9805 34.0939 41.7773 37.1418 41.0321C38.9138 40.6256 40.4023 39.9481 40.4023 39.6094C40.4023 38.5255 37.1418 38.7965 36.1494 40.0159C34.8027 41.5063 31.613 40.9643 31.3295 39.1352C31.1877 38.1868 31.5421 37.5771 32.6054 37.2383C33.5268 36.9674 34.023 36.3576 33.8812 35.6802C33.5977 34.2575 29.4157 33.7156 27.9272 34.935C27.0057 35.6802 27.0766 35.9512 28.7069 37.1706C32.1092 39.8126 28.636 42.5225 25.092 39.9481C23.5326 38.7965 21.2644 38.5932 21.2644 39.6094C21.2644 40.0159 22.682 40.6256 24.3831 41.0998L27.5019 41.9127L27.0766 44.6226C26.9349 46.1807 26.6513 47.4678 26.5805 47.5356C26.5096 47.6711 24.5249 47.1291 22.1149 46.3162C17.5077 44.8258 11.9789 40.7611 10.3487 37.6448C9.00192 35.0027 9.00192 31.6832 10.3487 31.209C10.9866 31.0058 11.6954 30.938 11.9789 31.0735C12.2625 31.2768 12.4751 30.2606 12.546 28.9057C12.6169 22.8764 13.4674 18.3374 15.2395 14.7469C16.9406 11.1564 20.1303 7.09174 21.2644 7.09174C21.5479 7.09174 22.3276 8.31115 23.0364 9.80154L24.3123 12.5113L29.841 12.4436C32.818 12.3759 35.6533 12.5791 36.0785 12.7823C36.4329 13.0533 37.4253 11.8339 38.205 10.1403C38.9847 8.44664 39.9061 7.09174 40.2605 7.09174C41.3238 7.09174 43.8046 10.0725 45.7184 13.7308C47.3487 16.847 48.8372 23.6216 49.0498 28.8379C49.1207 29.9219 49.6877 30.8025 50.6092 31.209C51.4598 31.5477 52.0977 32.4284 52.1686 33.1736C52.2395 35.1382 50.4674 38.9997 48.6954 40.8288C45.2931 44.3516 35.228 48.6195 34.4483 46.8581C34.3065 46.3839 34.0939 46.6549 34.0939 47.4678C34.023 48.8228 34.1647 48.8228 37.4253 48.0776C39.2682 47.6033 41.0402 47.4001 41.4655 47.6033C41.8199 47.8066 41.749 48.0776 41.2529 48.2808C40.6858 48.4163 40.8276 49.0937 41.8199 50.3131C42.5996 51.2616 43.0249 52.21 42.7414 52.4132C42.4579 52.6165 42.1743 53.6327 42.1743 54.6488C42.1034 56.207 42.4579 56.5457 43.7337 56.5457C45.7184 56.5457 45.7184 56.7489 43.8755 52.6842C43.0249 50.9229 42.2452 48.6195 42.1743 47.6033L42.1034 45.842L45.0096 47.7388C47.9157 49.6357 50.751 52.481 53.3736 55.8682L54.6494 57.5619L53.7989 55.936C53.3736 54.9876 51.6015 52.8875 49.9713 51.1938C48.341 49.5002 47.136 47.6033 47.2778 47.0614C47.5613 46.1807 47.4904 46.1807 46.8525 47.0614C46.2854 47.8743 45.931 47.8743 45.2931 47.2646C44.2299 46.2484 44.7969 45.5032 46.6398 45.3677C47.2778 45.3677 48.6954 44.5548 49.7586 43.6741C50.8218 42.7257 52.0268 41.6418 52.523 41.303C52.9483 40.8966 55.1456 40.6933 57.3429 40.7611C60.6743 40.8966 60.9579 40.8288 59.1858 40.2869C58.0517 39.9481 56.3506 39.8126 55.3582 40.0836L53.5862 40.4901L55.1456 38.5932C57.2011 36.0867 57.1303 33.7833 54.7912 31.751C52.9483 30.1251 52.8774 29.9219 53.1609 23.1473C53.5862 11.021 53.3736 6.41428 52.0977 3.36575C50.1839 -1.57964 47.2778 -1.10542 40.8276 5.19487L36.5038 9.32733L30.3372 9.46282C26.864 9.53056 24.0996 9.32733 24.0996 9.05635C24.0996 8.58213 20.2011 4.65291 16.8697 1.80761C15.8774 0.926929 14.1762 0.113987 13.1839 0.0462418C11.5536 -0.156994 11.0575 0.249477 9.78161 2.62056ZM16.4444 2.82379C19.705 5.46585 19.8467 5.80458 18.5709 7.43046L17.4368 8.92086L15.4521 6.34654C12.6169 2.62056 11.4828 2.28183 14.1054 6.00781C16.3027 8.9886 16.3736 9.25958 15.1686 10.0725C14.5307 10.5467 14.1762 11.2919 14.4598 11.6984C14.7433 12.1726 14.6724 12.5113 14.318 12.5113C13.6801 12.5113 13.0421 14.9502 12.6169 18.7439C12.546 19.3536 12.2625 19.7601 11.9789 19.6246C11.7663 19.4214 11.5536 20.7763 11.4828 22.5376C11.341 28.025 10.9866 30.1251 10.2069 30.3961C9.63985 30.5993 9.35632 29.2444 9.4272 25.8571C9.4272 23.1473 9.35632 17.5922 9.28544 13.5275C9.00192 1.87536 11.1284 -1.30866 16.4444 2.82379ZM51.0345 3.36575C52.0977 5.39811 52.4521 15.7631 51.7433 22.6731C51.5307 24.3667 51.6724 26.8733 51.9559 28.2282C52.3812 30.3283 52.3103 30.7348 51.4598 30.3961C50.2548 29.9219 49.1207 22.4699 50.2548 22.1312C50.6801 21.9957 50.3965 20.7085 49.4042 18.7439C48.4828 16.9825 47.8448 15.0857 47.9866 14.4082C48.1284 13.7985 47.9157 13.1211 47.5613 12.8501C47.136 12.6468 46.7816 11.8339 46.7816 11.1564C46.7816 10.479 46.2854 9.80154 45.6475 9.66605C44.7969 9.53056 45.0096 8.92086 46.7816 6.54977C47.9866 4.92389 48.8372 3.4335 48.6245 3.23026C48.4828 3.02703 47.4195 4.1787 46.3563 5.66909C44.2299 8.85311 43.9464 8.92086 42.2452 7.15948C41.1111 5.94007 41.182 5.80458 44.0881 3.4335C47.6322 0.520458 49.546 0.520458 51.0345 3.36575ZM36.1494 10.9532C36.1494 11.2919 33.5977 11.4952 30.4789 11.4952C27.3602 11.4952 24.8084 11.2919 24.8084 10.9532C24.8084 10.6822 27.3602 10.479 30.4789 10.479C33.5977 10.479 36.1494 10.6822 36.1494 10.9532ZM8.57663 35.6802C9.35632 38.4577 12.3333 41.9127 16.3027 44.5548C17.295 45.2323 16.3736 44.9613 14.318 43.9451C10.4195 41.9805 6.73372 38.119 6.87548 36.0867C7.01724 33.2414 7.08812 32.8349 7.44253 32.8349C7.58429 32.8349 8.08046 34.1221 8.57663 35.6802ZM55.0038 33.7833C55.6418 34.4608 55.7126 34.935 55.2874 35.206C54.8621 35.477 54.7203 35.8834 54.9329 36.2222C55.5709 37.2383 53.3736 40.0159 50.3257 41.9805C48.7663 42.9967 47.6322 44.0128 47.7739 44.2838C47.9866 44.5548 47.5613 44.758 46.9234 44.758C46.2854 44.8258 45.0805 45.029 44.3008 45.3677C43.5211 45.6387 43.8755 45.2323 45.0096 44.5548C48.2701 42.5225 51.6015 38.5932 52.523 35.5447C53.5153 32.4962 53.5862 32.4284 55.0038 33.7833ZM5.88314 45.4355C7.01724 46.7227 7.72605 48.0098 7.44253 48.2808C6.94636 48.755 2.83525 44.4871 2.83525 43.5386C2.83525 42.387 3.96935 43.0644 5.88314 45.4355ZM3.89847 47.0614C5.03257 48.1453 5.74138 49.2292 5.59962 49.4325C5.38697 49.5679 4.11111 48.6873 2.83525 47.4001C1.48851 46.1129 0.779693 45.029 1.1341 45.029C1.55939 45.029 2.76437 45.9097 3.89847 47.0614Z" fill="#15156B"/>
<path d="M18.0031 28.77C15.0261 29.9216 15.3805 30.8023 18.7119 30.8023C21.051 30.8023 22.3978 31.2088 24.028 32.5637L26.1545 34.2573L25.4457 32.225C25.0204 31.141 24.3116 29.9216 23.8863 29.5152C22.5395 28.499 19.6334 28.0925 18.0031 28.77Z" fill="#15156B"/>
<path d="M39.3391 28.7025C37.7088 29.38 36.5747 30.5316 35.9368 32.293C35.5823 33.2414 35.8659 33.2414 37.9923 32.022C39.6935 31.0736 41.3237 30.7349 43.5919 30.9381C46.5689 31.1413 46.7107 31.0736 45.5057 29.9897C43.9463 28.567 41.182 27.9573 39.3391 28.7025Z" fill="#15156B"/>
<path d="M65.8482 43.7416C68.3999 46.1804 68.5417 47.1288 66.6279 48.2805C65.8482 48.7547 65.2103 49.4322 65.2103 49.8386C65.2103 50.2451 65.99 49.9064 66.9823 49.0257C67.9038 48.145 68.7543 47.0611 68.7543 46.5869C68.7543 45.5707 65.2812 41.6415 64.3597 41.6415C64.0053 41.6415 64.6432 42.5899 65.8482 43.7416Z" fill="#15156B"/>
<path d="M31.3999 48.4156C31.3999 51.5996 31.5417 52.8867 31.6834 51.2609C31.8252 49.7027 31.8252 47.1284 31.6834 45.5025C31.5417 43.9444 31.3999 45.2315 31.3999 48.4156Z" fill="#15156B"/>
<path d="M27.7852 51.804C27.7852 53.0912 27.9269 53.6331 28.1396 52.9557C28.2813 52.346 28.2813 51.262 28.1396 50.5846C27.9269 49.9749 27.7852 50.5168 27.7852 51.804Z" fill="#15156B"/>
<path d="M33.4556 53.8362C33.4556 55.1234 33.5973 55.6653 33.81 54.9879C33.9517 54.3782 33.9517 53.2943 33.81 52.6168C33.5973 52.0071 33.4556 52.5491 33.4556 53.8362Z" fill="#15156B"/>
<path d="M2.19717 55.2585C1.77189 56.4779 1.41748 58.307 1.41748 59.391C1.41748 61.6943 3.26039 65.3525 4.39449 65.3525C4.89066 65.3525 4.7489 64.8783 4.11097 64.1331C3.47304 63.5234 2.76422 62.2363 2.4807 61.4233C1.91365 59.4587 2.69334 54.9875 3.54392 55.5295C3.82744 55.7327 3.9692 55.2585 3.75656 54.5133C3.26039 52.6842 3.11863 52.8197 2.19717 55.2585Z" fill="#15156B"/>
<path d="M29.1316 56.5464C28.9899 58.24 28.919 59.9336 28.9899 60.4079C29.0607 60.8143 28.3519 61.3563 27.5014 61.4918L25.8711 61.7628L27.5014 61.8983C29.486 61.966 29.9113 60.9498 29.5569 56.8174L29.3443 53.4979L29.1316 56.5464Z" fill="#15156B"/>
<path d="M65.2104 54.9878C65.2104 55.3943 65.5649 56.6137 65.9901 57.6976C66.4863 58.7138 67.0534 61.5591 67.4078 63.9979L67.9748 68.4014L67.6913 63.6592C67.6204 61.0171 66.9825 57.8331 66.3445 56.546C65.7775 55.2588 65.2813 54.5136 65.2104 54.9878Z" fill="#15156B"/>
<path d="M46.0722 56.1391C46.0722 57.2231 47.7733 60.5426 48.4822 60.8136C49.8998 61.3555 48.9783 64.6073 47.2063 65.488C45.1507 66.5719 42.8825 66.9106 38.0626 66.9784C35.8653 67.0461 34.0224 67.3171 34.0224 67.5881C34.0224 67.9268 32.9592 67.9268 31.7542 67.6558C30.4783 67.3848 27.3595 67.1139 24.8078 66.9784C17.0109 66.7751 13.6795 65.9622 14.6009 64.5395C14.9553 64.0653 14.7427 63.9976 14.1756 64.3363C13.6795 64.6073 13.0415 64.4718 12.6163 63.9298C12.0492 63.1169 11.9783 63.1846 12.2618 63.9976C13.1833 67.3848 25.7293 69.4849 37.6373 68.2655C45.3634 67.4526 48.9074 65.9622 49.6871 63.3201C50.0415 61.8297 50.1833 61.762 50.6795 62.8459C51.3883 64.404 49.9707 65.9622 46.4266 67.4526C44.8672 68.13 44.0875 68.7397 44.7254 68.7397C45.3634 68.7397 47.0645 67.9945 48.4822 67.0461L51.0339 65.3525L50.6086 67.2493C49.1201 73.2109 45.6469 77.3434 40.2599 79.579C32.9592 82.5597 21.5473 81.2048 16.373 76.6659C13.3959 74.0239 9.71012 65.0138 12.2618 66.4364C12.6871 66.7074 12.4745 66.2332 11.6948 65.2847C10.9151 64.404 10.2063 63.5234 9.99365 63.3201C9.85189 63.1169 9.99365 63.9298 10.2063 65.0138C10.4898 66.3687 10.2772 67.5203 9.63924 68.401C7.30016 71.3141 9.21396 78.6305 12.6163 79.9177C13.3959 80.1887 13.1124 79.6467 11.9074 78.4273C9.78101 76.2594 8.78867 73.1432 9.49748 70.4334C10.1354 68.13 11.0569 68.2655 11.553 70.7721C12.1201 73.3464 16.5147 77.9531 19.9879 79.6467C24.5243 81.8823 22.1143 83.1017 16.8691 81.3403C15.3806 80.7984 14.3883 80.6629 14.6009 81.0016C14.7427 81.3403 16.3021 81.8823 17.9323 82.2888C19.5626 82.6952 22.327 83.6437 24.099 84.4566C27.9266 86.0825 34.235 85.8793 38.7714 83.9824C41.3232 82.8307 41.5358 82.6275 40.5435 81.8823C39.4094 81.0694 39.4802 81.0016 40.7561 80.5274C43.2369 79.6467 47.9151 75.582 49.3327 73.1432C50.963 70.1624 52.4515 70.0946 52.5224 72.9399C52.5933 75.04 52.6642 75.04 53.0894 72.4657C53.373 70.9076 54.2944 69.0107 55.145 68.1978C56.2791 67.1139 56.7044 65.9622 56.6335 63.7943L56.4917 60.949L55.9956 63.6589L55.4994 66.3687L55.3576 63.8621C55.3576 62.5072 55.0741 61.22 54.7906 61.0845C54.4362 60.8813 54.3653 62.1007 54.5071 63.7266C54.7197 66.9106 53.2312 70.0946 51.3883 70.0946C50.6086 70.0946 50.5377 69.6204 51.1048 67.9268C52.0971 64.404 51.8845 62.7104 50.0415 61.0168C48.4113 59.3909 47.2063 57.2908 47.3481 56.3424C47.4189 56.0714 47.2063 55.8682 46.781 55.8682C46.4266 55.8682 46.0722 56.0036 46.0722 56.1391ZM32.8174 81.8823C33.8806 81.7468 35.7235 81.4758 36.8576 81.2726C39.9055 80.7984 39.6929 82.763 36.5032 84.0501C31.3289 86.0825 20.3423 84.0501 23.0358 81.4758C23.2484 81.3403 25.0205 81.4081 27.076 81.6791C29.1316 81.95 31.6833 82.0178 32.8174 81.8823Z" fill="#15156B"/>
<path d="M48.9079 56.8169C49.4041 57.4943 50.8217 58.4428 52.0267 59.0525C54.7202 60.3396 54.2949 59.8654 50.6799 57.4943C49.1205 56.5459 48.3408 56.2072 48.9079 56.8169Z" fill="#15156B"/>
<path d="M36.0075 58.172C35.6531 59.7979 35.7239 59.7979 37.2833 58.7817C38.9845 57.7655 38.9845 56.5461 37.2833 56.5461C36.7163 56.5461 36.1492 57.2913 36.0075 58.172Z" fill="#15156B"/>
<path d="M34.0933 58.5782C34.0225 61.1525 34.8022 63.3203 35.7945 63.3203C36.2907 63.3203 36.8577 63.5913 36.9995 63.9978C37.1412 64.3365 37.9918 63.9978 38.9841 63.2526C39.9765 62.4396 40.1891 62.1687 39.4094 62.5074C37.0704 63.6591 35.511 62.7106 34.8022 59.6621C34.3769 57.7652 34.1642 57.4265 34.0933 58.5782Z" fill="#15156B"/>
<path d="M32.1088 60.2713C32.1088 61.7617 32.2505 62.3037 32.3923 61.423C32.5341 60.6101 32.5341 59.3906 32.3923 58.7132C32.1797 58.1035 32.0379 58.7809 32.1088 60.2713Z" fill="#15156B"/>
<path d="M44.6548 61.2877C43.6624 62.0329 42.3866 62.4394 41.8195 62.2361C41.0398 61.9651 40.9689 62.1006 41.6069 62.7103C42.2448 63.32 42.9536 63.1168 44.5839 62.0329C45.7889 61.1522 46.7812 60.407 46.7812 60.2038C46.7812 59.7295 46.4977 59.865 44.6548 61.2877Z" fill="#15156B"/>
<path d="M24.1698 63.9302C23.6736 64.2689 22.6813 64.3367 21.9725 64.2012C21.2637 63.9979 20.0587 64.2012 19.3499 64.5399C18.2158 65.2174 18.2867 65.3528 20.0587 65.9625C22.9648 67.0465 24.0989 66.7755 21.6181 65.6238C19.5625 64.6076 19.4916 64.6076 21.3346 64.8786C22.3978 65.0141 24.028 64.7431 24.8786 64.2689C25.8001 63.7947 26.2962 63.3882 25.871 63.3882C25.5165 63.3205 24.7369 63.5915 24.1698 63.9302Z" fill="#15156B"/>
<path d="M31.1164 64.675C31.6125 64.946 32.7466 65.0137 33.5972 64.8783C34.6604 64.675 34.8022 64.7428 34.0934 65.217C33.3846 65.6912 33.739 65.9622 35.3692 66.1654C37.921 66.5041 38.3463 65.7589 36.0072 65.0137C33.6681 64.2685 30.0532 63.9976 31.1164 64.675Z" fill="#15156B"/>
<path d="M66.0613 70.7723C64.6437 73.8208 61.1705 75.5145 56.4215 75.5145C52.8065 75.5145 52.2395 75.7177 50.3966 77.6823C49.2625 78.9017 48.4119 80.0534 48.6245 80.1889C48.7663 80.3244 49.7586 79.5114 50.8218 78.292C52.5939 76.3952 53.1609 76.1919 56.705 76.1919C59.3276 76.1919 61.3123 75.7855 62.8716 74.837C65.3525 73.4144 67.6207 70.5691 67.1954 69.4174C67.1245 69.0787 66.5575 69.6206 66.0613 70.7723Z" fill="#15156B"/>
<path d="M27.8562 69.8915C30.0535 70.027 33.7393 70.027 36.0075 69.8915C38.2049 69.7561 36.362 69.6883 31.8964 69.6883C27.4309 69.6883 25.588 69.7561 27.8562 69.8915Z" fill="#15156B"/>
<path d="M44.6549 81.2726C42.8829 81.9501 42.5994 82.2211 43.6626 82.2211C44.4423 82.2888 45.7181 81.8146 46.4978 81.2726C48.1281 80.121 47.8446 80.121 44.6549 81.2726Z" fill="#15156B"/>
<path d="M41.2524 70.2294C39.5512 70.5681 38.2754 71.0423 38.488 71.1778C38.8424 71.5166 46.0723 70.0939 46.0723 69.6874C46.0723 69.281 44.8673 69.4165 41.2524 70.2294Z" fill="#6B406B"/>
<path d="M45.0084 71.7875C43.449 72.3295 41.1808 72.7359 39.9759 72.7359C38.1329 72.8037 37.7077 73.1424 37.3532 74.7006C37.1406 75.7845 36.0065 77.6136 34.8724 78.7653C32.8877 80.7976 32.8168 80.9331 34.2345 80.9331C39.1962 80.9331 45.5046 77.0716 47.9145 72.6682C49.0486 70.5681 48.9778 70.5681 45.0084 71.7875Z" fill="#6B406B"/>
<path d="M33.3134 82.085C31.3996 82.8302 30.4782 84.998 32.1084 84.998C34.3766 84.998 38.2751 83.5077 38.2751 82.627C38.2751 81.6108 35.4399 81.3398 33.3134 82.085Z" fill="#6B406B"/>
<path d="M48.3403 6.21111C47.7733 8.10798 47.7024 9.53063 48.2694 11.4275C48.6947 12.8501 48.8365 14.4083 48.6238 14.8825C48.1986 15.9664 49.6871 19.9634 50.5376 19.9634C51.3882 19.9634 50.9629 6.82082 50.0415 5.12719C49.1909 3.6368 49.12 3.70454 48.3403 6.21111Z" fill="#EC406B"/>
<path d="M10.9859 6.48147C10.7024 7.63314 10.4897 10.8172 10.4897 13.5947C10.5606 21.3177 10.5606 21.1822 11.6238 19.2853C12.7579 17.3207 13.6794 8.44608 13.0415 6.075C12.4744 3.77166 11.553 3.9749 10.9859 6.48147Z" fill="#EC406B"/>
<path d="M39.6218 9.05597C39.4091 10.4109 39.3382 10.8173 38.7003 11.698C37.9915 12.8497 39.2674 14.2723 41.4647 14.8143C42.457 15.0853 43.2367 15.5595 43.2367 15.8982C43.2367 16.3047 43.7329 16.5757 44.2999 16.5757C45.7884 16.5757 45.6467 15.6273 43.662 12.6465C41.6773 9.66568 39.7635 7.9043 39.6218 9.05597Z" fill="#EC406B"/>
<path d="M19.0661 10.2752C17.7194 11.8334 16.0182 15.8303 16.5144 16.3045C16.9397 16.711 19.4914 15.4239 21.3343 13.8657C22.1849 13.1883 22.4684 12.2398 22.1849 10.9527C21.7596 8.85257 20.6255 8.58159 19.0661 10.2752Z" fill="#EC406B"/>
<path d="M35.0144 16.1693C35.3688 17.4565 35.0853 18.5404 34.022 20.0308C31.5412 23.2826 27.3592 22.3342 26.5086 18.2694C26.2251 16.5081 25.7998 16.0339 25.2328 16.5081C24.2404 17.321 24.3113 19.8276 25.3745 21.7244C26.3669 23.4858 29.5565 24.8407 31.8956 24.4343C32.8879 24.2988 33.8094 24.0955 34.022 24.0955C34.2347 24.0278 35.0144 23.0793 35.7232 21.9277C37.0699 19.7598 36.8573 15.6951 35.2979 14.8144C34.8017 14.4757 34.66 14.8822 35.0144 16.1693Z" fill="#EC406B"/>
<path d="M19.2076 19.2182C17.8608 21.5893 19.1367 24.2313 22.539 25.9927C24.949 27.2121 24.3819 28.0928 21.4758 27.7541L18.7823 27.4831L21.1922 28.2283C22.539 28.7025 24.0984 29.8542 24.7363 30.9381C25.3742 31.9543 26.1539 32.835 26.4375 32.835C27.0754 32.835 25.7995 30.3961 24.8072 29.7864C23.6731 29.109 23.9566 27.8896 25.1616 28.3638C25.7286 28.567 26.2248 28.4315 26.2248 28.0251C26.2248 27.3476 24.1693 23.9603 23.3187 23.3506C22.3263 22.5377 21.1922 19.7601 21.5467 18.8795C22.1137 17.4568 19.9873 17.7278 19.2076 19.2182Z" fill="#EC406B"/>
<path d="M39.6219 19.2859C39.4801 21.657 39.3383 21.8602 37.7081 23.6893C36.1487 25.383 34.4475 28.7025 34.9437 29.1767C35.0146 29.3122 36.7866 27.9573 38.8422 26.1282C41.323 23.8926 42.528 22.3344 42.528 21.1828C42.528 18.473 39.7636 16.6438 39.6219 19.2859Z" fill="#EC406B"/>
<path d="M27.2173 27.1441C27.3591 28.228 27.8553 29.1765 28.2806 29.3119C28.8476 29.5152 29.0602 28.9732 28.9185 27.6861C28.7767 26.6699 28.3514 25.7215 27.8553 25.586C27.2882 25.3827 27.0756 25.9924 27.2173 27.1441Z" fill="#EC406B"/>
<path d="M33.0298 26.3989C31.6122 27.7538 31.4704 30.2604 32.8881 29.7184C33.7386 29.3797 34.9436 26.0602 34.3766 25.5182C34.3057 25.3827 33.6678 25.7892 33.0298 26.3989Z" fill="#EC406B"/>
<path d="M38.3464 28.3632C36.5035 29.3794 34.8023 31.8182 34.7314 33.6473C34.7314 35.2732 35.4403 35.2054 37.7793 33.2408C39.197 32.0214 40.6146 31.615 43.0954 31.615C44.9383 31.615 46.7104 31.5472 47.0648 31.5472C47.4901 31.4795 46.923 30.5988 45.8598 29.5826C43.7334 27.4825 40.8981 27.0083 38.3464 28.3632ZM45.5054 29.9891C46.7104 31.073 46.5686 31.1407 43.5916 30.9375C41.2525 30.7343 39.764 31.073 37.9211 32.1569C34.8732 33.986 34.6606 32.8344 37.5667 29.9891C39.4096 28.2954 40.1184 28.0245 42.0322 28.3632C43.3081 28.6342 44.8675 29.3116 45.5054 29.9891Z" fill="#EC406B"/>
<path d="M15.5929 29.3126C13.3955 31.0062 14.317 32.1579 17.3649 31.6837C19.7749 31.345 24.0986 32.4966 24.0986 33.5128C24.0986 34.4612 26.1542 34.8 26.6503 33.987C26.9339 33.5128 26.863 33.3773 26.5794 33.7161C26.225 33.987 25.2327 33.5128 24.3821 32.7676C23.3189 31.8192 21.476 31.1417 19.1369 30.9385C15.2385 30.5998 14.7423 30.0578 17.2231 28.9061C18.0737 28.4997 18.4281 28.161 18.0028 28.161C17.5067 28.0932 16.4434 28.6352 15.5929 29.3126Z" fill="#EC406B"/>
<path d="M46.4973 33.5799C45.7176 34.3251 44.5126 34.8671 43.8038 34.8671C41.89 34.8671 42.2444 36.1542 44.3 36.6284C46.072 37.0349 49.6161 35.4768 49.6161 34.2574C49.6161 32.767 47.7732 32.3605 46.4973 33.5799Z" fill="#EC406B"/>
<path d="M12.0493 34.5285C12.0493 35.8834 12.4746 36.2221 14.4593 36.6286C16.1604 36.8995 17.4363 36.6963 18.5704 35.9511L20.1298 34.8672H18.5704C16.3022 34.8672 16.0895 34.7994 14.5302 33.7833C12.5455 32.4284 12.0493 32.6316 12.0493 34.5285Z" fill="#EC406B"/>
<path d="M19.2085 36.6965C19.2085 37.103 18.1453 37.645 16.9403 37.916C14.3885 38.4579 14.6012 39.8806 17.2238 40.1515C19.2794 40.4225 20.2008 39.2031 19.6338 37.103C19.4211 36.4256 19.2794 36.2223 19.2085 36.6965Z" fill="#EC406B"/>
<path d="M41.9612 37.9831C42.3156 39.8123 44.3711 40.6929 45.7179 39.609C46.7102 38.7961 46.6393 38.5928 44.5838 37.7799C41.7485 36.6282 41.6777 36.696 41.9612 37.9831Z" fill="#EC406B"/>
<path d="M51.6718 43.1996C50.396 44.0125 48.8366 45.5029 48.2695 46.5191C47.2063 48.2127 47.2772 48.4159 50.1124 51.329C51.6718 52.9549 53.373 54.9872 53.8691 55.8679C54.5071 57.0196 54.8615 57.2228 55.2868 56.4776C55.712 55.8679 56.1373 56.1389 56.7753 57.6293C58.0511 60.3391 58.122 60.4068 58.8308 59.2552C59.1852 58.7132 59.327 56.4776 59.0435 54.3775C58.6891 50.7193 58.7599 50.4483 60.8864 48.4159C62.7293 46.6546 63.5799 46.3158 65.5645 46.5191C67.691 46.7223 67.8327 46.6546 67.1948 45.5029C65.2101 41.9124 55.8538 40.4898 51.6718 43.1996Z" fill="#EC406B"/>
<path d="M4.96121 51.1258C3.26006 52.7517 3.18917 54.0389 4.67768 55.4615C6.02442 56.8164 7.72557 56.8842 8.22174 55.5293C8.57615 54.7841 8.93055 54.7163 9.92289 55.326C10.5608 55.7325 11.6949 55.868 12.4037 55.597C13.3961 55.2583 13.467 54.9873 12.7581 54.1744C12.0493 53.3614 12.1202 53.1582 13.0417 53.1582C14.5302 53.1582 14.4593 52.2775 12.8999 50.9226C11.057 49.2967 6.73324 49.4322 4.96121 51.1258Z" fill="#EC406B"/>
<path d="M49.1199 53.5644C48.3402 55.1903 48.9781 56.342 50.3249 55.529C51.1754 55.0548 51.2463 52.6837 50.4666 52.2095C50.1831 52.074 49.616 52.6837 49.1199 53.5644Z" fill="#EC406B"/>
<path d="M47.4897 56.9517C47.4897 58.1034 48.6947 59.3905 49.1909 58.7131C49.4035 58.3743 49.12 57.6969 48.553 57.2227C47.9859 56.7485 47.4897 56.613 47.4897 56.9517Z" fill="#EC406B"/>
<path d="M23.248 59.7294C24.8783 60.3391 24.0986 61.0843 21.9721 60.9488C20.271 60.8811 19.9875 61.0166 20.6963 61.7617C21.1216 62.3037 21.9721 62.5069 22.6101 62.236C23.7442 61.8295 25.3035 61.423 26.3668 61.3553C26.6503 61.2875 26.7212 60.8811 26.5085 60.3391C26.2959 59.8649 25.3035 59.4584 24.2403 59.4584C23.1771 59.4584 22.7518 59.5939 23.248 59.7294Z" fill="#EC406B"/>
<path d="M51.3878 63.9979C51.5295 66.6399 51.813 69.011 52.0966 69.282C52.8763 70.0272 54.5774 67.3174 54.5774 65.2173C54.5774 63.1172 52.8054 59.2557 51.813 59.2557C51.5295 59.2557 51.3169 61.4236 51.3878 63.9979Z" fill="#EC406B"/>
<path d="M12.1914 61.4231C10.9155 62.6425 11.199 65.0136 12.6875 66.3007C15.1684 68.4686 20.3427 69.417 29.4864 69.417C41.7488 69.417 48.5534 67.8589 50.3964 64.6071C50.9634 63.5232 50.8925 62.9135 49.9002 61.8973C49.2623 61.2198 48.4826 60.7456 48.3408 60.9488C48.1282 61.1521 48.4826 61.694 49.1914 62.1683C52.0975 64.2006 47.7738 66.9782 39.8351 68.1976C34.3063 69.0105 20.6971 68.4686 16.8695 67.3169C13.0419 66.1652 11.4826 64.3361 12.6875 62.507C13.6799 60.9488 13.3964 60.2714 12.1914 61.4231Z" fill="#EC406B"/>
<path d="M7.44187 64.7424L5.31543 65.1489L7.3001 65.6909C9.28478 66.2328 10.2771 65.8941 9.85183 64.8779C9.71007 64.5392 8.64685 64.4715 7.44187 64.7424Z" fill="#EC406B"/>
<path d="M14.8848 77.4788C14.8848 78.1562 17.0112 79.1047 17.5074 78.6304C17.72 78.4949 17.153 78.0207 16.3733 77.5465C15.5227 77.14 14.8848 77.0723 14.8848 77.4788Z" fill="#EC406B"/>
<path d="M45.0088 77.953C43.5912 78.9692 44.1583 79.1047 46.3556 78.2918C47.1353 78.0208 47.4188 77.6143 47.0644 77.4111C46.71 77.1401 45.7885 77.4111 45.0088 77.953Z" fill="#EC406B"/>
<path d="M11.3408 66.9782C11.3408 68.0622 14.3887 69.4171 15.4519 68.8074C16.019 68.4686 15.3811 67.9267 13.8217 67.1815C11.9079 66.3008 11.3408 66.233 11.3408 66.9782Z" fill="#6B6B6B"/>
<path d="M47.3481 67.7909C43.9458 69.5523 37.4247 70.2297 28.7063 69.891C24.0282 69.7555 19.5627 69.3491 18.783 69.0781C17.4362 68.6039 17.4362 68.6039 18.5703 69.7555C20.4132 71.6524 34.0933 72.0589 40.827 70.5007C47.2063 68.9426 50.3251 67.9264 50.3251 67.249C50.3251 66.5038 49.6163 66.6393 47.3481 67.7909Z" fill="#6B6B6B"/>
<path d="M13.6089 72.8721C15.948 76.9369 17.0112 77.4111 15.7354 73.8883C15.0974 72.1947 14.0342 70.7043 13.3254 70.5011C12.1913 70.2301 12.1913 70.5011 13.6089 72.8721Z" fill="#6B6B6B"/>
<path d="M19.1372 73.2787C19.1372 74.9046 21.1219 78.0209 23.1066 79.5113C25.1621 81.0694 30.9035 81.4759 33.3135 80.2565C34.7311 79.579 37.5663 75.5143 37.5663 74.2272C37.5663 73.753 35.6525 73.482 32.1085 73.4142C29.0606 73.4142 24.8786 73.1432 22.8939 72.8723C19.9169 72.4658 19.1372 72.5335 19.1372 73.2787Z" fill="#6B6B6B"/>
<path d="M44.9384 76.3269L42.8828 78.5625L45.2219 76.5979C46.4269 75.4462 47.4901 74.4978 47.4901 74.3623C47.4901 73.8203 46.923 74.2946 44.9384 76.3269Z" fill="#6B6B6B"/>
<path d="M22.8943 81.8143C22.2564 82.8305 24.5246 84.1854 27.7851 84.6596C30.4786 85.1338 31.8254 84.5241 31.8962 82.8982C31.8962 82.153 23.3905 81.1369 22.8943 81.8143Z" fill="#6B6B6B"/>
<path d="M52.452 36.3568C51.9558 37.5762 51.4596 38.1859 51.247 37.7117C51.1052 37.3052 50.6091 36.8987 50.1838 36.8987C49.7585 36.8987 49.7585 37.3052 50.3255 37.9149C51.3179 39.0666 50.7508 40.0828 47.4903 42.8603L45.7183 44.4185L47.8447 43.4023C50.3964 42.2506 55.7125 37.102 55.0746 36.4923C54.7911 36.2213 54.9328 35.6116 55.3581 35.0696C55.996 34.3922 55.8543 34.1889 54.7202 34.1889C53.7278 34.1889 53.019 34.8664 52.452 36.3568Z" fill="#C1C1EC"/>
<path d="M9.99427 37.0341C10.136 37.1696 11.5537 38.3213 13.113 39.6084L15.9483 41.9795L13.5383 39.4052C12.1916 38.0503 10.774 36.8986 10.3487 36.8986C9.99427 36.8986 9.8525 36.9664 9.99427 37.0341Z" fill="#C1C1EC"/>
<path d="M12.7583 42.8604C12.7583 43.1991 13.538 43.8088 14.5303 44.2153C15.5227 44.6217 16.3024 44.8927 16.3024 44.7572C16.3024 44.6217 15.5227 44.012 14.5303 43.4023C13.538 42.7926 12.7583 42.5216 12.7583 42.8604Z" fill="#C1C1EC"/>
<path d="M51.2468 74.2941C49.6874 76.2587 49.5456 77.0716 51.0341 75.649C51.8847 74.7683 52.4518 73.9553 52.2391 73.7521C52.0974 73.6166 51.6012 73.8198 51.2468 74.2941Z" fill="#C1C1EC"/>
<path d="M11.1987 38.6611C12.8999 41.7774 18.8539 45.5034 24.3118 46.926C26.2964 47.468 26.9344 47.468 26.7926 46.926C26.6508 46.5196 24.9497 45.7066 22.965 45.2324C21.0512 44.6905 19.1374 43.8098 18.7121 43.2678C18.2869 42.7936 17.7198 42.5226 17.5072 42.7258C17.2945 42.9291 15.5934 41.7774 13.7505 40.1515C11.7658 38.4579 10.7735 37.8482 11.1987 38.6611Z" fill="#ECECEC"/>
<path d="M48.695 38.797C46.2142 41.2358 44.9383 42.1842 42.174 43.5391C40.6146 44.2843 39.0552 44.9618 38.6299 45.0295C36.6452 45.5037 34.7314 46.4522 34.7314 46.9941C34.7314 48.0103 42.174 45.3005 45.718 42.9972C48.6242 41.1003 50.8215 38.526 50.1836 37.8485C50.0418 37.713 49.333 38.1195 48.695 38.797Z" fill="#ECECEC"/>
<path d="M31.6129 39.9472C31.8964 40.4892 32.8887 40.9634 33.8811 40.9634C35.6531 40.9634 35.6531 40.8956 34.3064 39.9472C32.5343 38.66 31.1167 38.66 31.6129 39.9472Z" fill="#ECECEC"/>
<path d="M26.9342 40.2859C26.0836 40.8279 26.1545 40.9634 27.4304 40.9634C28.2809 40.9634 29.2024 40.6247 29.415 40.2859C29.9821 39.4052 28.3518 39.4052 26.9342 40.2859Z" fill="#ECECEC"/>
<path d="M16.5154 48.5518C15.4522 49.6357 15.0978 50.6519 15.3813 51.9391C15.594 53.023 16.0193 53.8359 16.3028 53.8359C16.8698 53.8359 18.5001 50.6519 18.8545 48.5518C19.0672 47.7389 18.9254 47.0614 18.571 47.0614C18.2166 47.0614 17.2951 47.7389 16.5154 48.5518Z" fill="#ECECEC"/>
<path d="M42.1735 48.2802C42.1735 48.9576 42.8115 50.2448 43.4494 51.1255C44.0873 52.0739 44.6544 53.4288 44.6544 54.174C44.6544 55.2579 44.5126 55.3257 43.9456 54.5127C43.3785 53.632 43.2368 53.632 43.2368 54.6482C43.2368 55.3934 43.7329 55.7321 44.6544 55.6644C45.7176 55.5966 45.9302 55.2579 45.6467 54.3095C45.2923 53.2256 45.4341 53.1578 46.6391 53.7675C48.5528 54.716 48.6946 54.716 49.1908 53.4288C49.8287 51.8707 48.2693 49.4318 47.277 50.3803C46.1429 51.4642 45.3632 51.2609 45.8594 50.0415C46.1429 49.2963 45.7885 48.5511 45.0088 48.0092C43.1659 46.722 42.0318 46.8575 42.1735 48.2802Z" fill="#ECECEC"/>
<path d="M20.4132 48.2129C21.0512 48.4161 20.8385 49.0258 19.7753 50.313C18.9247 51.3969 18.6412 52.2098 19.0665 52.3453C19.4918 52.4808 19.7044 52.8195 19.4918 53.1583C18.9247 53.9712 25.0914 53.0905 25.6584 52.2098C25.942 51.8034 26.2255 50.7872 26.2255 50.042C26.2255 48.9581 25.6584 48.4839 24.0282 48.1451C21.4056 47.6709 19.0665 47.6709 20.4132 48.2129Z" fill="#ECECEC"/>
<path d="M36.2911 48.2128C35.2987 48.416 34.7317 48.8902 34.9443 49.4322C35.157 49.9064 35.5823 51.6678 35.7949 53.4291C36.2911 56.3422 36.4328 56.5454 38.5593 56.5454C41.7489 56.5454 42.8122 55.6647 42.2451 53.4969C41.8907 52.142 41.9616 51.8032 42.6704 52.2097C43.1666 52.4807 42.8122 51.9387 41.8907 50.9226C41.0401 49.9741 40.4731 48.8902 40.7566 48.4837C41.1819 47.7385 39.4807 47.603 36.2911 48.2128Z" fill="#ECECEC"/>
<path d="M50.467 55.1908C49.5455 56.6134 49.5455 56.5457 53.0896 59.12C54.2237 60.0007 55.0034 61.4233 55.2869 63.3879C55.7831 66.2332 55.854 66.2332 55.9248 63.9976C55.9957 61.6943 53.3022 55.0553 51.9555 54.3101C51.6011 54.1068 50.9631 54.5133 50.467 55.1908Z" fill="#ECECEC"/>
<path d="M2.55135 56.6807C1.77166 59.5938 2.12607 61.3552 3.8981 63.0488C6.5207 65.5554 9.28507 65.0811 10.4192 61.9649C10.9153 60.6777 11.2697 59.8648 11.2697 60.2035C11.3406 60.61 11.695 60.5422 12.1912 60.068C12.8291 59.4583 12.8291 59.0518 12.1912 58.4421C11.5533 57.8324 11.128 57.8324 10.4901 58.4421C9.14331 59.7293 8.08009 59.4583 5.45748 57.2227C2.97664 55.1903 2.97664 55.1903 2.55135 56.6807Z" fill="#ECECEC"/>
<path d="M63.2967 57.0875C62.8714 58.7811 61.8082 59.0521 61.2411 57.5617C60.9576 57.0197 60.6032 56.681 60.2488 56.8842C59.9652 57.0197 60.1779 58.7134 60.6741 60.5425C62.5878 67.6557 60.6032 72.1269 55.4997 72.1269C53.4442 72.1269 53.1606 72.3301 53.1606 73.8205C53.1606 75.3787 53.3733 75.5142 56.6338 75.5142C64.6434 75.5142 69.1089 68.4687 66.6281 59.865C66.2028 58.5101 65.4231 56.952 64.7852 56.4778C63.8637 55.8003 63.6511 55.8681 63.2967 57.0875Z" fill="#ECECEC"/>
<path d="M39.2677 57.8326C35.1566 59.594 34.1642 62.778 37.7792 62.5748C39.0551 62.5071 39.1259 62.4393 38.0627 62.1683C36.6451 61.8296 36.716 59.4585 38.1336 59.7295C38.6298 59.865 38.9842 59.6618 38.9842 59.2553C38.9842 58.9166 39.4803 58.8488 40.1892 59.052C40.9688 59.323 41.1815 59.2553 40.8271 58.7133C40.4727 58.1714 40.8271 57.9004 41.7485 57.9004C43.875 57.9004 44.1585 59.052 42.5282 60.6102C41.7485 61.3554 41.1106 62.1006 41.1106 62.3038C41.1106 62.5071 40.898 62.6425 40.6144 62.7103C38.9133 62.9135 37.4957 64.2684 37.7083 65.4201C37.8501 66.1653 38.1336 66.775 38.488 66.7073C38.7715 66.7073 39.9765 66.7073 41.1106 66.7073C42.67 66.7073 43.237 66.3685 43.237 65.4878C43.237 64.8104 42.8826 63.9297 42.4574 63.5232C41.8903 62.9813 42.2447 62.4393 43.875 61.6941C45.08 61.0844 46.0723 60.2037 46.0723 59.7295C46.0723 59.1875 46.3558 59.2553 46.852 59.9327C47.419 60.6779 47.4899 60.5424 47.0646 59.2553C46.2141 56.2068 43.9459 55.8003 39.2677 57.8326ZM41.6068 65.0136C41.6068 65.4878 41.1815 65.8266 40.6853 65.8266C40.1892 65.8266 39.9056 65.5556 40.1183 65.2846C40.26 65.0136 39.9765 64.6749 39.5512 64.4717C39.0551 64.2684 39.2677 64.1329 40.1183 64.2007C40.898 64.2684 41.6068 64.6072 41.6068 65.0136Z" fill="#ECECEC"/>
<path d="M44.8674 61.7617C44.3003 61.9649 43.9459 63.1166 44.0168 64.5392C44.0168 66.4361 44.1586 66.7071 44.5838 65.7586C44.9383 64.8102 45.2927 64.6747 45.6471 65.2167C45.9306 65.6909 46.4976 65.8941 46.852 65.6231C47.2065 65.4199 47.3482 64.9457 47.1356 64.607C46.9229 64.2682 47.2065 64.2005 47.7735 64.4037C48.4823 64.6747 48.9076 64.4715 48.9076 63.794C48.9076 62.1681 46.7812 61.152 44.8674 61.7617Z" fill="#ECECEC"/>
<path d="M11.7656 68.9424C13.5376 73.4135 39.1257 74.7684 47.4188 70.907C51.3173 69.0779 50.9629 67.8584 46.9935 69.6198C43.8747 70.9747 42.528 71.1102 31.5414 71.1102C19.5625 71.1102 18.9246 70.9747 12.5452 68.4004C11.6238 68.0617 11.4111 68.1972 11.7656 68.9424Z" fill="#ECECEC"/>
<path d="M10.0644 70.9751C10.2062 72.33 9.99352 73.6172 9.56823 73.7527C8.64678 74.1591 12.4744 77.5464 13.892 77.5464C15.5223 77.5464 15.0261 76.327 12.687 74.3624C11.1276 73.0075 10.6314 72.1268 10.915 70.9751C11.1985 70.1622 10.9859 69.2815 10.5606 69.0105C9.99352 68.6718 9.85176 69.2815 10.0644 70.9751Z" fill="#ECECEC"/>
<path d="M16.5858 79.8498C15.3808 80.7305 15.5226 80.866 18.0743 81.5434C21.5475 82.4241 21.9727 82.4918 21.9727 81.6112C21.9727 81.2724 21.0513 80.5272 19.9172 79.9853C18.216 79.1046 17.7199 79.1046 16.5858 79.8498Z" fill="#ECECEC"/>
</svg>
